<?xml version="1.0" standalone="no"?>
<!DOCTYPE svg PUBLIC "-//W3C//DTD SVG 20010904//EN"
 "http://www.w3.org/TR/2001/REC-SVG-20010904/DTD/svg10.dtd">
<svg version="1.0" xmlns="http://www.w3.org/2000/svg"
 width="388.000000pt" height="388.000000pt" viewBox="0 0 388.000000 388.000000"
 preserveAspectRatio="xMidYMid meet">
<metadata>
Created by potrace 1.16, written by Peter Selinger 2001-2019
</metadata>
<g transform="translate(0.000000,388.000000) scale(0.100000,-0.100000)"
fill="#000000" stroke="none">
<path d="M1692 3862 c-110 -40 -209 -135 -252 -242 -35 -86 -39 -211 -10 -299
12 -39 29 -76 36 -82 8 -6 14 -17 14 -24 0 -22 107 -114 170 -146 54 -27 77
-33 155 -37 77 -4 103 -1 158 17 60 20 146 75 173 111 7 8 24 29 38 45 66 76
97 266 61 376 -40 121 -112 206 -222 259 -61 30 -79 34 -168 37 -79 3 -111 -1
-153 -15z m253 -207 c92 -54 132 -154 105 -266 -25 -102 -141 -180 -248 -165
-48 6 -117 42 -142 73 -47 58 -54 78 -55 158 0 74 2 83 32 127 33 47 80 82
131 99 46 14 129 3 177 -26z"/>
<path d="M2532 3145 c-245 -46 -261 -53 -302 -126 -50 -89 -35 -82 -136 -64
-419 73 -868 -27 -1182 -265 -95 -72 -225 -205 -281 -287 -95 -143 -164 -322
-178 -465 -5 -64 -7 -68 -27 -62 -133 41 -202 165 -165 297 6 23 33 63 65 98
48 53 54 63 54 103 0 37 -5 48 -32 71 -48 41 -96 31 -160 -32 -97 -95 -132
-187 -126 -331 3 -83 8 -107 35 -165 57 -120 166 -207 292 -232 30 -6 58 -18
61 -26 4 -8 17 -54 28 -104 26 -107 109 -281 181 -375 27 -36 86 -101 131
-145 l82 -79 -13 -41 c-61 -196 15 -392 186 -475 181 -88 408 -8 494 175 l21
46 53 -8 c68 -10 379 -8 436 4 l45 8 28 -57 c71 -142 243 -228 395 -199 119
23 222 102 271 209 37 81 42 202 13 291 l-22 63 93 97 c52 53 114 128 138 168
l45 72 61 1 c89 0 150 25 210 85 82 82 86 101 82 437 -3 268 -4 285 -25 323
-53 98 -146 154 -258 155 l-70 1 -59 91 -59 91 41 77 c26 48 42 91 42 111 0
31 -122 391 -152 447 -13 25 -47 46 -88 54 -14 3 -125 -13 -248 -37z m147
-225 c11 -5 35 -56 60 -128 l42 -119 -47 -117 -47 -118 22 -26 c77 -96 118
-157 154 -229 l41 -82 116 -3 115 -3 13 -50 c35 -143 35 -327 0 -470 l-13 -50
-115 -3 -116 -3 -38 -77 c-21 -42 -57 -104 -81 -137 -43 -60 -180 -198 -229
-230 -15 -10 -26 -27 -26 -39 0 -11 20 -71 45 -131 50 -123 53 -142 26 -201
-45 -100 -170 -123 -245 -46 -14 16 -46 75 -70 133 -52 121 -38 116 -201 78
-131 -30 -397 -33 -515 -5 -41 10 -93 20 -116 23 l-40 5 -43 -103 c-47 -116
-77 -154 -132 -171 -97 -29 -199 49 -199 152 0 17 20 80 45 140 25 60 42 115
39 122 -3 7 -30 31 -61 53 -72 52 -209 198 -251 268 -91 150 -132 295 -132
461 0 343 214 657 569 836 98 49 257 97 383 116 184 27 429 6 587 -50 24 -9
50 -16 57 -16 8 0 38 38 68 84 30 46 60 87 67 92 12 8 201 50 237 53 7 0 21
-3 31 -9z"/>
<path d="M1661 2579 c-90 -11 -184 -33 -275 -67 -67 -25 -68 -26 -63 -56 3
-17 22 -66 43 -109 42 -89 26 -85 167 -43 169 50 354 57 526 21 41 -8 78 -12
82 -8 15 16 70 174 67 191 -6 33 -266 84 -415 81 -32 -1 -91 -5 -132 -10z"/>
</g>
</svg>
