<svg width="100" height="35" viewBox="0 0 100 35" fill="none" xmlns="http://www.w3.org/2000/svg">
<path d="M11.7902 0H17.2589V25.3592C14.4537 25.8928 12.3939 26.1065 10.1566 26.1065C3.48014 26.106 0 23.0826 0 17.2835C0 11.698 3.69343 8.06958 9.41066 8.06958C10.2984 8.06958 10.9731 8.1405 11.7902 8.35393V0ZM11.7902 12.765C11.1511 12.5518 10.6184 12.4806 9.94353 12.4806C7.17357 12.4806 5.57542 14.1884 5.57542 17.1765C5.57542 20.094 7.10255 21.6948 9.90802 21.6948C10.5117 21.6948 11.009 21.6594 11.7902 21.5527V12.765Z" fill="#636466"/>
<path d="M25.9589 8.45972V21.16C25.9589 25.5359 25.6391 27.635 24.6806 29.4492C23.7927 31.1927 22.6206 32.2953 20.206 33.5052L15.1277 31.086C17.5425 29.9475 18.7144 28.9516 19.4601 27.4213C20.2415 25.8563 20.4903 24.0416 20.4903 19.2746V8.45972H25.9589ZM20.4903 0.0282135H25.9589V5.64922H20.4903V0.0282135ZM29.2622 9.70478C31.6773 8.56667 33.9854 8.06864 36.5068 8.06864C39.3123 8.06864 41.1588 8.81545 41.9757 10.2742C42.4371 11.0924 42.5791 12.1595 42.5791 14.4367V25.5715C40.1285 25.9272 37.0392 26.1765 34.7666 26.1765C30.1857 26.1765 28.1257 24.575 28.1257 21.0177C28.1257 17.1751 30.8602 15.3965 37.5719 14.8271V13.6176C37.5719 12.6215 37.0747 12.266 35.6896 12.266C33.6656 12.266 31.3928 12.8352 29.2618 13.9382L29.2622 9.70478ZM37.8209 18.4209C34.1985 18.7766 33.0264 19.3458 33.0264 20.7689C33.0264 21.8359 33.7014 22.3339 35.1927 22.3339C36.0097 22.3339 36.7552 22.263 37.8207 22.0851L37.8209 18.4209ZM45.2428 9.31347C48.4742 8.45972 51.1376 8.06864 53.8365 8.06864C56.642 8.06864 58.6662 8.70873 59.874 9.95402C61.0103 11.1277 61.3652 12.4083 61.3652 15.1481V25.8917H55.8963V15.3616C55.8963 13.2628 55.1861 12.4797 53.2331 12.4797C52.4874 12.4797 51.8127 12.5509 50.7115 12.871V25.8917H45.2428V9.31347ZM63.4912 28.88C65.4091 29.8763 67.3266 30.3383 69.3507 30.3383C72.9369 30.3383 74.464 28.88 74.464 25.3934V25.2867C73.399 25.8201 72.3332 26.0337 70.9131 26.0337C66.1189 26.0337 63.0644 22.8675 63.0644 17.8517C63.0644 11.6255 67.5747 8.10376 75.5646 8.10376C77.9084 8.10376 80.0749 8.35254 82.7026 8.88614L80.83 12.838C79.3741 12.5534 80.7134 12.7999 79.6131 12.6931V13.2625L79.6839 15.5746L79.7192 18.5632C79.7547 19.31 79.7547 20.0572 79.7904 20.8043V22.2988C79.7904 26.9947 79.3998 29.2002 78.2282 31.0147C76.5235 33.6831 73.5758 34.9991 69.3855 34.9991C67.2547 34.9991 65.4087 34.6789 63.4907 33.9319L63.4912 28.88ZM74.3579 12.5153H73.79C72.725 12.4797 71.4821 12.7641 70.6295 13.2977C69.3158 14.0449 68.6405 15.3969 68.6405 17.3179C68.6405 20.0575 69.9905 21.6227 72.4052 21.6227C73.1508 21.6227 73.7547 21.4802 74.4645 21.2669V19.3816C74.4645 18.741 74.4294 18.0291 74.4294 17.2825L74.3941 14.7568L74.3584 12.9424L74.3579 12.5153ZM91.193 7.99727C96.6617 7.99727 100 11.4483 100 17.0335C100 22.7615 96.5201 26.3546 90.98 26.3546C85.5108 26.3546 82.137 22.9035 82.137 17.3539C82.1375 11.5901 85.6178 7.99727 91.193 7.99727ZM91.086 21.9428C93.1813 21.9428 94.4244 20.1995 94.4244 17.1756C94.4244 14.1874 93.2168 12.4086 91.122 12.4086C88.9555 12.4086 87.7122 14.1521 87.7122 17.1756C87.7126 20.1998 88.9557 21.9428 91.086 21.9428Z" fill="#636466"/>
</svg>

