<svg width="100" height="25" viewBox="0 0 100 25" fill="none" xmlns="http://www.w3.org/2000/svg">
<path fill-rule="evenodd" clip-rule="evenodd" d="M95.8013 1.84763L100 1.87307C100 1.87307 92.1938 13.5097 91.5563 14.4581C91.3493 14.7652 91.0349 15.0964 90.8754 15.507C90.4722 16.539 90.0582 18.803 90.0582 18.803L86.2164 18.8241C86.2164 18.8241 86.8143 16.4642 86.7896 15.2072C86.768 14.1092 86.2584 13.0125 85.9726 11.9112C85.6836 10.7964 85.2914 8.61498 85.2914 8.61498H89.2412L89.7859 11.0122L95.8013 1.84763Z" fill="#636466"/>
<path fill-rule="evenodd" clip-rule="evenodd" d="M87.8506 4.30179C88.6255 4.81565 89.101 7.65042 89.101 7.65042C89.101 7.65042 85.0466 7.71619 82.8402 7.71619H80.9335L78.6182 18.803H75.0773C75.0773 18.803 77.2809 6.75445 77.8012 4.57004C77.9697 3.86275 78.9561 3.98416 80.6217 3.98416H83.2814C84.9989 3.98416 87.0064 3.74286 87.8506 4.30179ZM71.3661 9.70135C71.3661 9.70135 71.4764 8.98975 70.9917 8.16558C70.5775 7.46303 70.1951 7.29958 69.1054 7.26206C66.0289 7.15575 66.0887 9.66383 66.0887 9.66383L71.3661 9.70135ZM74.7027 6.82906C75.1535 8.6182 74.2942 12.8221 74.2942 12.8221C74.2942 12.8221 69.8066 12.7397 67.3485 12.8221C66.5842 12.8477 65.6694 12.7306 65.4418 13.1218C65.1217 13.6699 65.5589 14.5137 65.9293 14.8702C66.3557 15.2805 67.1862 15.3273 67.4847 15.3689C69.4798 15.6478 73.6554 15.441 73.6554 15.441L72.9321 18.9645C72.9321 18.9645 67.0313 19.2901 64.0799 18.5151C63.4971 18.3624 62.9508 18.0539 62.5817 17.6163C62.481 17.4966 62.3936 17.3334 62.2983 17.1924C62.2222 17.0798 62.0003 16.71 61.9008 16.4176C61.2267 14.4415 61.9798 10.6558 62.718 8.62704C62.8036 8.392 62.9112 8.09377 63.0245 7.8404C63.1661 7.52449 63.2858 7.16783 63.3989 6.97893C63.475 6.84868 63.5693 6.7648 63.6483 6.64189C63.7394 6.49655 63.8455 6.35574 63.9437 6.23002C64.2161 5.88241 64.5253 5.63658 64.8971 5.33124C66.1267 4.31818 68.3521 3.53175 71.0256 3.83278C72.0322 3.94663 73.5523 4.34211 74.2942 5.48089C74.493 5.78494 74.5912 6.38873 74.7027 6.82928V6.82906ZM58.462 3.97035L61.8955 3.94814C61.8955 3.94814 59.9819 13.9337 59.0068 18.803H55.057C52.2967 18.803 49.8384 19.179 48.7925 17.005C47.7779 14.8941 48.7462 11.4228 49.201 9.06436C49.5224 7.39532 50.1995 3.98394 50.1995 3.98394L53.7568 3.94814C53.7568 3.94814 52.7516 9.25929 52.3333 11.9112C52.1836 12.8611 51.8746 13.7556 52.1973 14.4579C52.5037 15.1264 52.9328 15.1742 54.24 15.2072C54.6542 15.218 56.0106 15.2072 56.0106 15.2072L58.462 3.97035ZM42.3915 11.1619C42.751 9.75677 43.2753 8.23308 43.2087 6.96685C43.1366 5.61265 42.1043 4.37963 41.4383 4.12044C39.4322 3.34134 37.5542 4.43052 36.8077 5.31895C35.8421 6.46959 35.5152 7.81366 35.1733 9.66405C34.9189 11.0377 34.7103 12.4878 35.1733 13.5591C35.9931 15.453 38.5495 15.0395 41.302 15.0576C41.7105 13.853 42.0483 12.5001 42.3915 11.1619ZM47.1583 5.61869C47.5503 8.75578 46.0457 12.2185 45.0091 15.2296C46.066 15.3347 46.9922 15.2135 47.0589 15.3002C47.1283 15.4125 46.3505 18.8944 46.0794 18.9035C45.2406 18.9274 42.4611 18.9528 41.302 18.9528C37.5199 18.9528 33.9817 19.2239 32.1774 17.1551C31.4447 16.3145 30.938 14.873 30.8153 13.8588C30.611 12.1659 30.867 10.3019 31.224 8.76505C31.5468 7.37743 31.9606 6.06808 32.5859 4.86935C34.1752 1.81765 36.9398 -0.447626 41.5743 0.0752948C42.4732 0.177076 43.7642 0.610076 44.5706 1.12394C44.6263 1.15995 44.8213 1.33074 44.866 1.36071C45.9557 2.12342 46.9485 3.94362 47.1583 5.61869ZM30.4244 3.98847C30.1956 5.13458 29.9669 6.4338 29.7258 7.56632H25.9125C26.2079 6.31088 26.4341 5.06277 26.7297 3.97057C27.9499 3.97057 29.0844 3.98847 30.4246 3.98847H30.4244ZM25.7762 8.61518H29.4535C28.9727 11.5427 28.0206 16.2649 27.2744 19.5521C26.8073 21.6093 26.4954 23.1103 25.2315 24.1965C25.1184 24.294 25.0531 24.2476 24.959 24.3464C24.7262 24.5907 23.6488 24.874 23.0526 24.9456C22.0829 25.0612 20.9865 24.9607 19.7947 24.9338C20.1066 23.6798 20.4594 22.174 20.7374 21.0501C23.6424 21.437 23.7159 18.4163 24.2783 15.507C24.6036 13.8258 25.5898 9.28927 25.7762 8.61518Z" fill="#636466"/>
<path fill-rule="evenodd" clip-rule="evenodd" d="M17.1961 16.2561L17.1173 16.4808C15.7746 19.3574 13.3951 21.1222 10.0013 21.2C8.41471 21.236 6.90302 20.7881 5.91548 20.3012C3.78437 19.2478 1.99179 17.2944 1.01288 15.2072C-0.391396 12.2153 -0.644651 8.05324 2.27523 4.94461C2.32032 4.94461 1.92103 5.61869 1.96611 5.61869L1.88574 5.90635C-0.218312 13.1531 6.2642 19.3634 12.5658 18.6531C14.0802 18.4823 16.0114 17.57 17.1961 16.2561Z" fill="#636466"/>
<path fill-rule="evenodd" clip-rule="evenodd" d="M13.3828 13.2596C14.9682 13.2714 16.6241 12.4563 17.6048 11.3119C16.7468 13.7077 14.2627 15.2475 10.9316 14.7578C8.14225 14.3473 5.48522 11.2595 5.21158 8.16558C5.01145 5.91389 5.72476 4.57004 6.90028 2.93982C6.49178 3.79245 6.33908 4.44993 6.30105 4.86934C5.85452 9.74016 9.838 13.2339 13.3828 13.2596Z" fill="#636466"/>
<path fill-rule="evenodd" clip-rule="evenodd" d="M17.4455 7.20967C17.1991 7.83157 15.7801 9.00593 15.1534 9.15278C12.672 9.73435 11.0829 8.43988 10.2504 6.96686C10.1267 6.74691 9.89798 6.14615 9.85701 5.99326C9.53417 4.78569 9.68256 2.95924 10.6456 2.01389C10.3555 2.91288 10.3131 3.957 10.4658 4.63582C10.5584 5.04618 10.8402 5.76274 11.1223 6.21343C11.6355 7.03436 11.9611 7.23382 12.6203 7.66984C12.9172 7.86607 13.2358 8.02349 13.3734 8.06661C13.9985 8.2691 15.3183 8.80237 17.4457 7.20967" fill="#636466"/>
</svg>
