<svg width="37" height="37" viewBox="0 0 37 37" fill="none" xmlns="http://www.w3.org/2000/svg">
<path d="M18.4997 3.63989C10.2978 3.63989 3.64835 10.2932 3.64835 18.4998C3.64835 26.7066 10.2976 33.3601 18.4997 33.3601C26.702 33.3601 33.3517 26.7066 33.3517 18.4998C33.3515 10.2932 26.702 3.63989 18.4997 3.63989ZM12.3371 10.342C13.3473 10.342 14.1667 11.0897 14.1667 12.0122C14.1667 12.9346 13.3473 13.6823 12.3371 13.6823C11.3263 13.6823 10.5074 12.9346 10.5074 12.0122C10.5074 11.0897 11.3263 10.342 12.3371 10.342ZM14.1806 24.6269H10.5654V15.188H14.1806V24.6269ZM26.4652 24.6269H22.8326V19.4366C22.8326 18.8441 22.7227 18.4247 22.5036 18.1786C22.2843 17.9329 21.9764 17.8096 21.5802 17.8096C21.1418 17.8096 20.7862 17.9756 20.514 18.3076C20.2415 18.6395 20.1057 19.2349 20.1057 20.0941V24.6269H16.4902V15.188H19.8566V16.7253C20.3596 16.0976 20.8691 15.6487 21.3842 15.3789C21.8994 15.1094 22.5267 14.9747 23.2671 14.9747C24.2681 14.9747 25.051 15.2723 25.6168 15.8679C26.182 16.4632 26.465 17.3831 26.465 18.6275V24.6269H26.4652Z" fill="#636466"/>
</svg>
