<svg width="42" height="49" viewBox="0 0 42 49" fill="none" xmlns="http://www.w3.org/2000/svg">
<path d="M20.2719 12.1422C20.2719 12.3016 20.1125 12.3016 20.1125 12.3016H19.9531C19.7937 12.3016 19.7937 12.1422 19.6344 11.9828C19.6344 11.9828 19.475 11.8234 19.475 11.6641C19.475 11.5047 19.475 11.5047 19.6344 11.5047L19.9531 11.6641C20.1125 11.8234 20.2719 11.9828 20.2719 12.1422ZM17.4031 10.5484C17.4031 9.75156 17.0844 9.27344 16.6062 9.27344C16.6062 9.27344 16.6062 9.43281 16.4469 9.43281V9.75156H16.925C16.925 10.0703 17.0844 10.2297 17.0844 10.5484H17.4031ZM22.9812 9.75156C23.3 9.75156 23.4594 10.0703 23.6187 10.5484H23.9375C23.7781 10.3891 23.7781 10.2297 23.7781 10.0703C23.7781 9.91094 23.7781 9.75156 23.6187 9.59219C23.4594 9.43281 23.3 9.27344 23.1406 9.27344C23.1406 9.27344 22.9812 9.43281 22.8219 9.43281C22.8219 9.59219 22.9812 9.59219 22.9812 9.75156ZM18.2 12.3016C18.0406 12.3016 18.0406 12.3016 18.0406 12.1422C18.0406 11.9828 18.0406 11.8234 18.2 11.6641C18.3736 11.6723 18.5441 11.6155 18.6781 11.5047C18.8375 11.5047 18.8375 11.6641 18.8375 11.6641C18.8375 11.8234 18.6781 11.9828 18.3594 12.3016H18.2ZM16.4469 12.1422C15.8094 11.8234 15.65 11.3453 15.65 10.5484C15.65 10.0703 15.65 9.75156 15.9687 9.43281C16.1281 9.11406 16.4469 8.95469 16.7656 8.95469C17.0844 8.95469 17.2437 9.11406 17.5625 9.43281C17.7219 9.91094 17.8812 10.3891 17.8812 10.8672V11.1859H18.0406V11.0266C18.2 11.0266 18.2 10.7078 18.2 10.0703C18.2 9.59219 18.2 9.11406 17.8812 8.63594C17.5625 8.15781 17.2437 7.83906 16.6062 7.83906C16.3611 7.84184 16.1227 7.91972 15.9232 8.06221C15.7237 8.20471 15.5727 8.40495 15.4906 8.63594C15.1719 9.27344 15.1078 9.75156 15.1078 10.5484C15.1078 11.1859 15.3312 11.8234 15.9687 12.4609C16.1281 12.3016 16.2875 12.3016 16.4469 12.1422ZM36.3656 34.6109C36.525 34.6109 36.525 34.5469 36.525 34.4031C36.525 34.0531 36.3656 33.6391 35.8875 33.1766C35.4094 32.6984 34.6125 32.3953 33.6562 32.2688C33.4969 32.2531 33.3375 32.2531 33.3375 32.2531C33.1781 32.2219 33.1781 32.2219 33.0187 32.2219C32.8053 32.203 32.5927 32.1764 32.3812 32.1422C32.8001 30.8721 33.0152 29.5436 33.0187 28.2063C33.0187 26.6125 32.7 25.4969 32.0625 24.5406C31.425 23.5844 30.7875 23.1063 29.9906 22.9469C29.8312 23.1063 29.8312 23.1062 29.8312 23.2656C30.6281 23.5844 31.425 24.2219 31.9031 25.1781C32.3812 26.2937 32.5406 27.25 32.5406 28.3656C32.5406 29.2578 32.3812 30.5813 31.7437 32.2703C31.1062 32.525 30.4687 33.1141 29.9906 34.0391C29.9906 34.1828 29.9906 34.2625 30.15 34.2625C30.15 34.2625 30.3094 34.1188 30.4687 33.8484C30.7875 33.5781 30.9469 33.3063 31.2656 33.0359C31.7437 32.7656 32.0625 32.6219 32.5406 32.6219C33.3375 32.6219 34.1344 32.7328 34.6125 32.9563C35.25 33.1641 35.5687 33.3859 35.7281 33.6422C35.8875 33.8813 36.0469 34.1047 36.2062 34.3109C36.2062 34.5172 36.3656 34.6141 36.3656 34.6141V34.6109ZM21.7062 11.5047C21.5469 11.3453 21.5469 11.0266 21.5469 10.7078C21.5469 10.0703 21.5469 9.75156 21.8656 9.27344C22.1844 8.95469 22.5031 8.79531 22.8219 8.79531C23.3 8.79531 23.6187 9.11406 23.9375 9.43281C24.0969 9.91094 24.2562 10.2297 24.2562 10.7078C24.2562 11.5047 23.9375 11.9828 23.3 12.1422C23.3 12.1422 23.4594 12.3016 23.6187 12.3016C23.9375 12.3016 24.0969 12.4609 24.4156 12.6203C24.575 11.6641 24.7344 11.0266 24.7344 10.2297C24.7344 9.27344 24.575 8.63594 24.2562 8.15781C23.7781 7.67969 23.3 7.52031 22.6625 7.52031C22.1844 7.52031 21.7062 7.67969 21.2281 7.99844C20.9094 8.47656 20.75 8.79531 20.75 9.27344C20.75 10.0703 20.9094 10.7078 21.2281 11.3453C21.3875 11.3453 21.5469 11.5047 21.7062 11.5047ZM23.6187 14.0547C21.5469 15.4891 19.9531 16.1266 18.6781 16.1266C17.5625 16.1266 16.4469 15.6484 15.4906 14.8516C15.65 15.1703 15.8094 15.4891 15.9687 15.6484L16.925 16.6047C17.5625 17.2422 18.3594 17.5609 19.1562 17.5609C20.2719 17.5609 21.5469 16.9234 23.1406 15.8078L24.575 14.8516C24.8937 14.5328 25.2125 14.2141 25.2125 13.7359C25.2125 13.5766 25.2125 13.4172 25.0531 13.4172C24.8937 13.0984 24.0969 12.6203 22.5031 12.1422C21.0687 11.5047 19.9531 11.1859 19.3156 11.1859C18.8375 11.1859 18.0406 11.5047 16.925 12.1422C15.9687 12.7797 15.3312 13.4172 15.3312 14.0547C15.3312 14.0547 15.4906 14.2141 15.65 14.5328C16.6062 15.3297 17.5625 15.8078 18.5187 15.8078C19.7937 15.8078 21.3875 15.1703 23.4594 13.5766V13.8953C23.6187 13.8953 23.6187 14.0547 23.6187 14.0547ZM27.2828 46.2438C27.9203 47.4422 29.0359 48.0438 30.3109 48.0438C30.6297 48.0438 30.9484 47.9953 31.2672 47.9C31.5859 47.8359 31.9047 47.725 32.064 47.5969C32.2234 47.4859 32.3828 47.3734 32.5422 47.2469C32.8609 47.1359 32.8609 47.0563 33.0203 46.9766L35.7297 44.6344C36.3672 44.1266 37.0047 43.6813 37.8015 43.2953C38.439 42.9125 39.0765 42.6578 39.3953 42.5141C39.8734 42.3859 40.1922 42.1953 40.5109 41.9406C40.6703 41.7016 40.8297 41.3984 40.8297 41.0156C40.8297 40.5531 40.5109 40.2031 40.1922 39.9484C39.8734 39.6938 39.5547 39.5188 39.2359 39.4063C38.9172 39.2938 38.5984 39.0391 38.1203 38.6094C37.7274 38.0975 37.4551 37.5036 37.3234 36.8719L37.164 35.9484C37.0047 35.5187 37.0047 35.2 36.8453 35.0234C36.8453 34.975 36.8453 34.9594 36.6859 34.9594C36.5266 34.9594 36.2078 35.1031 36.0484 35.3734C35.7297 35.6437 35.4109 35.9469 35.0922 36.2656C34.9328 36.5844 34.4547 36.8703 34.1359 37.1422C33.6578 37.4125 33.1797 37.5563 32.8609 37.5563C31.5859 37.5563 30.9484 37.2063 30.4703 36.5203C30.1516 36.0109 29.9922 35.4203 29.8328 34.7516C29.514 34.4813 29.3547 34.3375 29.0359 34.3375C28.239 34.3375 27.9203 35.1656 27.9203 36.8391V41.7953C27.9203 41.9391 27.7609 42.2578 27.7609 42.7516C27.6015 43.2453 27.6015 43.8063 27.6015 44.4406L27.2828 46.2094V46.2359V46.2438ZM4.17655 45.3953C5.6578 45.6125 7.36405 46.075 9.29218 46.7828C11.2203 47.4844 12.4 47.85 12.8297 47.85C13.9453 47.85 14.8703 47.3563 15.6344 46.4016C15.7937 46.0922 15.7937 45.7297 15.7937 45.3109C15.7937 43.8047 14.8859 41.9 13.0687 39.5906L11.9844 38.1406C11.7609 37.8375 11.4906 37.375 11.1406 36.7547C10.8785 36.2588 10.5857 35.7798 10.2641 35.3203C10.0562 34.9531 9.72186 34.5875 9.29218 34.2203C8.88711 33.8625 8.39965 33.6107 7.87343 33.4875C7.20468 33.6156 6.74218 33.8375 6.51874 34.1406C6.2953 34.4438 6.16874 34.7781 6.13593 35.1281C6.08749 35.4625 5.99218 35.6859 5.8328 35.7969C5.67343 35.8922 5.40311 35.9719 5.03593 36.0516C4.95624 36.0516 4.81249 36.0516 4.60624 36.0672H4.17655C3.33124 36.0672 2.7578 36.1625 2.45624 36.3219C2.07202 36.7455 1.85635 37.2953 1.84999 37.8672C1.84999 38.1219 1.91405 38.5531 2.04061 39.1578C2.16874 39.7469 2.23124 40.225 2.23124 40.5594C2.23124 41.2125 2.04061 41.8656 1.64218 42.5187C1.24374 43.2047 1.03593 43.7141 1.03593 44.0766C1.1953 44.6953 2.24686 45.1297 4.17499 45.3844L4.17655 45.3953ZM9.4828 30.9063C9.4828 29.8063 9.7703 28.5953 10.3594 27.1609C10.9328 25.7266 11.5062 24.7703 12.0641 24.1328C12.0328 23.9734 11.9531 23.9734 11.825 23.9734L11.6656 23.8141C11.2031 24.2922 10.6453 25.4078 9.97655 27.0016C9.3078 28.4359 8.95624 29.7578 8.95624 30.7313C8.95624 31.4484 9.13124 32.0703 9.44999 32.6109C9.79999 33.1375 10.6453 33.9016 11.9844 34.8734L13.6734 35.9734C15.4734 37.5359 16.4297 38.6188 16.4297 39.2563C16.4297 39.5906 16.2703 39.925 15.7922 40.2922C15.4734 40.675 15.0437 40.8656 14.6766 40.8656C14.6453 40.8656 14.6281 40.8969 14.6281 40.9766C14.6281 40.9922 14.7875 41.3109 15.1219 41.9328C15.7906 42.8406 17.225 43.2875 19.1375 43.2875C22.6437 43.2875 25.3515 41.8531 27.4234 38.9844C27.4234 38.1875 27.4234 37.6938 27.264 37.4859V36.8969C27.264 35.8609 27.4234 35.0797 27.7422 34.5703C28.0609 34.0609 28.3797 33.8219 28.8578 33.8219C29.1765 33.8219 29.4953 33.9328 29.8141 34.1719C29.9734 32.9453 29.9734 31.8766 29.9734 30.9203C29.9734 29.4703 29.9734 28.275 29.6547 27.1594C29.5108 26.327 29.2421 25.521 28.8578 24.7688L27.9015 23.3344C27.5828 22.8563 27.4234 22.3781 27.1047 21.9C26.9453 21.2625 26.7859 20.7844 26.7859 19.9875C26.3078 19.1906 25.989 18.3938 25.5109 17.5969C25.1922 16.8 24.8734 16.0031 24.5547 15.3656L23.1203 16.4812C21.5266 17.5969 20.2516 18.075 19.1359 18.075C18.1797 18.075 17.3828 17.9156 16.9047 17.2781L15.9484 16.4812C15.9484 16.9594 15.7891 17.5969 15.4703 18.2344L14.4656 20.1469C14.0187 21.2625 13.7812 21.9 13.7328 22.3781C13.6687 22.6969 13.6219 23.0156 13.5891 23.0156L12.3937 25.4062C11.1031 27.7969 10.45 30.0109 10.45 31.8438C10.45 32.2109 10.4812 32.5922 10.5453 32.975C9.82811 32.4813 9.47811 31.7953 9.47811 30.9031L9.4828 30.9063ZM20.8937 45.9813C18.8219 45.9813 17.2281 46.2625 16.1125 46.8172V46.7688C15.3156 47.725 14.4234 48.2188 13.1797 48.2188C12.3984 48.2188 11.1719 47.9156 9.51405 47.3109C7.84061 46.7375 6.35936 46.2969 5.06874 46.0078C4.77916 45.94 4.48668 45.8852 4.19218 45.8438C3.78197 45.7786 3.37304 45.7057 2.96561 45.625C2.58196 45.5403 2.20411 45.4313 1.83436 45.2984C1.48727 45.1981 1.16265 45.0321 0.878113 44.8094C0.6578 44.6078 0.549988 44.3828 0.549988 44.1281C0.549988 43.8734 0.604675 43.6016 0.712488 43.3109C0.81405 43.1359 0.92655 42.9609 1.03749 42.8016C1.14843 42.6266 1.2453 42.4672 1.3078 42.3078C1.40311 42.1641 1.46718 42.0203 1.53124 41.8609C1.5953 41.7172 1.65936 41.5734 1.69061 41.3984C1.72186 41.2391 1.75468 41.0797 1.75468 40.9203C1.75468 40.7609 1.69061 40.2828 1.56405 39.4391C1.43593 38.6109 1.37343 38.0844 1.37343 37.8609C1.37343 37.1594 1.5328 36.6016 1.8828 36.2031C2.2328 35.8047 2.56874 35.5969 2.91874 35.5969H4.75155C4.8953 35.5969 5.11874 35.5172 5.45311 35.3266C5.56405 35.0719 5.66093 34.8641 5.72343 34.6734C5.80311 34.4828 5.83436 34.3391 5.86718 34.275C5.89843 34.1797 5.93124 34.0844 5.96249 34.0047C6.03533 33.8744 6.12063 33.7514 6.21718 33.6375C6.0834 33.4586 6.016 33.2388 6.02655 33.0156C6.02655 32.8406 6.02655 32.6813 6.0578 32.5859C6.0578 32.0125 6.32811 31.2 6.90155 30.1313L7.45936 29.1266C7.92186 28.2656 8.27186 27.6281 8.52655 26.9906C8.79686 26.3531 9.08436 25.3969 9.40311 24.1219C9.6578 23.0062 10.2641 21.8906 11.2203 20.775L12.4156 19.3406C13.2437 18.3844 13.7859 17.5875 14.0891 16.95C14.3922 16.3125 14.5516 15.5156 14.5516 14.8781C14.5516 14.5594 14.4719 13.6031 14.2969 12.0094C14.1418 10.4736 14.062 8.9311 14.0578 7.3875C14.0578 6.27187 14.1531 5.475 14.3609 4.67813C14.5687 3.88125 14.9344 3.08438 15.4766 2.44688C15.9547 1.80938 16.5922 1.17188 17.5484 0.853125C18.5047 0.534375 19.6203 0.375 20.8953 0.375C21.3734 0.375 21.8516 0.375 22.3297 0.534375C22.8078 0.534375 23.4453 0.69375 24.2422 1.0125C24.8797 1.33125 25.5172 1.65 25.9953 2.12813C26.6328 2.60625 27.1109 3.40313 27.589 4.2C27.9078 5.15625 28.2265 6.1125 28.3859 7.3875C28.5453 8.18437 28.5453 8.98125 28.7047 10.0969C28.7047 11.0531 28.864 11.6906 28.864 12.1688C29.0234 12.6469 29.0234 13.2844 29.1828 14.0813C29.3422 14.7188 29.5016 15.3562 29.8203 15.8344C30.139 16.4719 30.4578 17.1094 30.9359 17.7469C31.414 18.5438 32.0515 19.3406 32.689 20.2969C34.1234 21.8906 35.239 23.6438 35.8765 25.3953C36.6734 26.9891 37.1516 29.0609 37.1516 31.275C37.1536 32.3606 36.9925 33.4404 36.6734 34.4781C36.9922 34.4781 37.1515 34.6063 37.3109 34.8281C37.4703 35.05 37.6297 35.5297 37.7891 36.2781L37.9484 37.4578C38.1078 37.8078 38.2672 38.1438 38.7453 38.4297C39.064 38.7172 39.3828 38.9563 39.8609 39.1469C40.1797 39.3063 40.6578 39.5297 40.9765 39.8156C41.2953 40.1344 41.4547 40.4688 41.4547 40.8188C41.4547 41.3609 41.2953 41.7594 40.9765 42.0453C40.6722 42.369 40.2871 42.6058 39.8609 42.7313C39.5422 42.8906 38.9047 43.2094 37.9484 43.6594C37.1516 44.1313 36.3547 44.7031 35.5578 45.3797L33.9641 46.7359C33.4377 47.2536 32.8488 47.7034 32.2109 48.075C31.7328 48.3625 31.0953 48.5047 30.4578 48.5047L29.3422 48.3766C28.0672 48.0422 27.2703 47.4047 26.7922 46.4328C24.2422 46.1234 22.1703 45.9703 20.8953 45.9703L20.8937 45.9813Z" fill="#636466"/>
</svg>

