<svg width="75" height="40" viewBox="0 0 75 40" fill="none" xmlns="http://www.w3.org/2000/svg">
<path d="M46.7543 0.000826744C46.0508 -0.0169507 45.4359 0.24971 45.1194 1.02006C44.5794 2.30893 45.9218 3.57112 46.4033 4.23037C46.7363 4.68962 47.1697 5.20368 47.4097 5.71775C47.5687 6.05848 47.5927 6.40069 47.7262 6.76069C48.0607 7.64511 48.5946 8.6525 49.0221 9.4747C49.2381 9.88951 49.478 10.3251 49.754 10.6954C49.9235 10.9206 50.2115 11.0243 50.258 11.3724C49.976 11.765 49.958 12.3739 49.8005 12.8702C49.0866 15.0983 49.3551 17.8701 50.393 19.5145C50.7154 20.0241 51.4699 21.1056 52.5018 20.6952C53.4047 20.3308 53.2052 19.2019 53.4617 18.2004C53.5217 17.9812 53.4857 17.8123 53.6027 17.6627V17.7086C53.8727 18.2523 54.1487 18.7975 54.4231 19.3352C55.0381 20.3071 56.1225 21.3204 57.0359 22.0078C57.5114 22.3618 57.8864 22.9752 58.5013 23.1826V23.1381H58.4548C58.3378 22.9515 58.1503 22.8759 57.9974 22.7322C57.6166 22.3664 57.2656 21.9716 56.9474 21.5515C56.1042 20.4062 55.3544 19.1965 54.7051 17.9338C54.3827 17.3264 54.1007 16.6553 53.8322 16.0375C53.7272 15.7931 53.7272 15.4346 53.5097 15.3072C53.2097 15.7649 52.7778 16.1294 52.5498 16.6671C52.1853 17.5234 52.1328 18.5708 51.9978 19.6538C51.9153 19.6834 51.9513 19.6597 51.9093 19.6982C51.2719 19.5426 51.0424 18.8953 50.8084 18.3397C50.2115 16.9323 50.0945 14.6657 50.6269 13.0509C50.7619 12.6272 51.3769 11.3087 51.1309 10.9206C51.0139 10.5325 50.615 10.3132 50.399 10.0169C50.1095 9.62174 49.8636 9.19711 49.6655 8.75027C49.1736 7.65104 48.7116 6.37847 48.1896 5.26739C47.9437 4.73406 47.5282 4.20074 47.1817 3.72668C46.8008 3.20817 46.3793 2.82447 46.0808 2.18893C45.9803 1.96819 45.8348 1.60968 45.9923 1.37858C46.0388 1.22154 46.1093 1.15784 46.2683 1.10599C46.5323 0.903031 47.2702 1.16969 47.5507 1.28524C48.2826 1.58598 48.8991 1.87634 49.52 2.28078C49.8185 2.47781 50.117 2.8541 50.48 2.96373H50.8909C51.5404 3.10891 52.2618 3.00373 52.8588 3.18891C53.9252 3.50742 54.8806 4.00519 55.7415 4.54295C58.406 6.21371 60.5721 8.55511 62.017 11.3265C62.257 11.7769 62.362 12.2109 62.572 12.6865C62.989 13.6465 63.5229 14.642 63.9444 15.5798C64.3599 16.522 64.7693 17.4657 65.3618 18.2464C65.6722 18.6582 66.8797 18.8834 67.4241 19.1086C67.8051 19.2715 68.438 19.4389 68.795 19.6538C69.4924 20.0641 70.1599 20.556 70.8108 21.0137C71.1393 21.2389 72.1352 21.7307 72.1877 22.1411C70.5769 22.1011 69.3455 22.2448 68.297 22.6848C67.9986 22.8122 67.5171 22.8122 67.4721 23.1826C67.6296 23.3515 67.6581 23.6063 67.7871 23.8137C68.0391 24.2137 68.462 24.7514 68.843 25.0344C69.2585 25.341 69.6799 25.6714 70.1254 25.944C70.9098 26.4121 71.7903 26.6847 72.5507 27.1588C72.9962 27.4417 73.4476 27.7958 73.8811 28.1069C74.0971 28.2699 74.2381 28.5128 74.52 28.6106V28.5662C74.373 28.3795 74.3386 28.1247 74.2036 27.9336L73.5991 27.338C73.0022 26.5765 72.2935 25.9074 71.4963 25.3529C70.8693 24.9085 69.4684 24.3055 69.212 23.5885L69.164 23.5426C69.6034 23.4952 70.1254 23.3337 70.5349 23.2241C71.2263 23.0448 71.8368 23.0907 72.5447 22.9115C72.8672 22.8181 73.1896 22.7263 73.5121 22.6389V22.4537C73.1551 22.0952 72.8972 21.6093 72.5042 21.2789C71.4783 20.4167 70.3594 19.5545 69.2045 18.8375C68.567 18.4375 67.7766 18.1782 67.1016 17.8419C66.8736 17.7264 66.4747 17.6686 66.3217 17.4775C65.9662 17.0331 65.7727 16.4642 65.4968 15.9442C64.9103 14.8164 64.3611 13.6702 63.8499 12.5072C63.5049 11.725 63.2769 10.9502 62.8435 10.2436C60.7631 6.87031 58.5238 4.82739 55.0561 2.82447C54.3182 2.39633 53.4332 2.23485 52.4958 2.01412C51.9858 1.98005 51.4879 1.95042 50.9779 1.92227C50.6734 1.79486 50.351 1.4245 50.0645 1.23932C49.3446 0.794885 47.9257 0.0186042 46.7543 0.000826744ZM51.7174 4.90887C51.4391 4.90609 51.1616 4.93694 50.8909 5.00072V5.04665H50.9374C51.0949 5.37109 51.3829 5.57997 51.5824 5.857L52.0323 6.81254L52.0803 6.76513C52.3608 6.56958 52.4958 6.25107 52.4958 5.77108C52.3788 5.65404 52.3608 5.50442 52.2678 5.36516C52.1328 5.17405 51.8809 5.07035 51.7174 4.90887ZM2.80628 23.6966C2.35631 23.7144 1.86285 23.8003 1.33039 23.9692C0.439465 24.2359 0 24.7618 0 25.8329V37.0371H3.00576V26.1055L7.17093 35.4519C7.68688 36.6149 8.39033 37.0312 9.76572 37.0312C11.1501 37.0312 11.8236 36.6149 12.3395 35.4519L16.5047 26.341V37.0371H19.5044V25.8329C19.5044 24.7633 19.0695 24.2359 18.174 23.9707C16.0412 23.304 14.6058 23.8774 13.9624 25.3188L9.68472 34.8208L5.54806 25.3188C5.08009 24.2374 4.14267 23.6433 2.80628 23.6966ZM39.3733 23.7026C38.1884 23.7026 34.5032 23.8418 34.5032 26.6655V28.4936C34.5032 29.7898 35.6581 30.8491 38.1599 31.1098C38.4404 31.1276 38.7224 31.1498 39.0029 31.1498C39.0029 31.1498 41.9201 31.092 42.0026 31.1098C43.69 31.1098 43.5025 32.4061 43.5025 32.5913V34.0727C43.5025 34.2757 43.456 35.5542 41.9846 35.5542H34.5032V37.0356H42.0146C42.9986 37.0356 43.954 36.8327 44.7144 36.4801C45.9803 35.9068 46.5023 35.132 46.5023 34.1127V31.9942C46.5023 29.7232 43.6435 29.6298 42.0026 29.6298H39.0029C37.8255 29.6298 37.644 28.9232 37.503 28.1484V26.6669C37.644 26.0773 37.908 25.2773 38.9504 25.1855H46.5023V23.704L39.3733 23.7026ZM50.9719 23.7026C48.7581 24.0033 47.9782 25.0922 47.9782 26.6655V34.0727C47.9782 35.5142 48.7926 36.3823 50.468 36.8327C51.0319 36.9897 51.5404 37.0534 52.0218 37.0534L55.3606 37.0371H57.3239L58.9933 38.5185H62.368L60.0477 36.4519C61.1381 36.0075 61.4771 35.3245 61.4771 34.0446V26.6669C61.4771 25.0922 60.4407 24.0048 58.2253 23.704L50.9719 23.7026ZM63.001 23.704V34.0105C63.001 35.7986 64.0269 36.806 66.7387 37.0075C66.9906 37.0193 67.2486 37.0371 67.5006 37.0371H75V35.5556H68.0691C66.5227 35.5556 66.0007 34.9127 66.0007 34.0001V23.704H63.001ZM52.7598 25.1855H56.6205C57.6404 25.1855 58.3258 25.9958 58.4773 26.6669C58.4773 26.6669 58.5013 33.5646 58.5013 34.0742C58.5013 34.5838 58.2148 34.8149 58.2148 34.8149L57.4004 34.0742H54.0017L55.671 35.5556H52.7598C51.7174 35.5556 51.1309 34.7912 50.9779 34.0742V26.818C50.9779 26.0299 51.5884 25.1855 52.7598 25.1855ZM21.0043 28.1484C21.0643 28.2077 21.0043 34.4623 21.0043 34.5838C21.0283 35.8801 22.6917 37.0134 25.2985 37.0371H30.0036V37.1349C30.0036 37.4134 30.2091 38.3393 28.5037 38.5185H21.0043V40H28.8262C30.1506 39.96 33.0214 39.6637 33.0034 37.3956C33.0034 37.3556 33.0154 28.1484 33.0034 28.1484H30.0036V35.5556C29.9571 35.5556 26.2884 35.5675 25.5505 35.5556C24.1031 35.5319 23.9801 34.7171 24.0041 34.4046V28.1484H21.0043Z" fill="#636466"/>
</svg>

