<svg width="54" height="54" viewBox="0 0 54 54" fill="none" xmlns="http://www.w3.org/2000/svg">
<path d="M36.2762 32.0941C36.5428 29.8742 36.4631 29.5485 38.1164 29.908L38.5362 29.9451C39.8077 30.0029 41.4712 29.7405 42.4478 29.2866C44.5513 28.3108 45.7983 26.6806 43.7244 27.1088C38.9931 28.0846 38.6678 26.4832 38.6678 26.4832C43.6641 19.0704 45.7528 9.66094 43.9501 7.3575C39.0336 1.07494 30.5227 4.04578 30.3801 4.12299L30.3345 4.13185C29.3996 3.93736 28.3538 3.82177 27.1784 3.80278C25.0374 3.76777 23.4128 4.3643 22.1805 5.29875C22.1805 5.29875 6.99764 -0.956388 7.70386 13.165C7.85404 16.1692 12.0099 35.8965 16.9665 29.9379C18.7781 27.7594 20.5289 25.9171 20.5289 25.9171C21.3983 26.4946 22.4391 26.7891 23.5309 26.6832L23.6153 26.6115C23.5891 26.8819 23.6005 27.1464 23.6495 27.4594C22.3724 28.8866 22.7479 29.1372 20.1947 29.6625C17.612 30.1949 19.1295 31.1424 20.1196 31.39C21.3211 31.6908 24.0992 32.1165 25.977 29.4878L25.9023 29.7878C26.4035 30.1885 26.3693 32.6679 26.4402 34.4394C26.511 36.2108 26.63 37.8637 26.9911 38.8391C27.3523 39.8136 27.7784 42.3242 31.1335 41.6053C33.9373 41.0037 36.0809 40.1389 36.2762 32.0941Z" fill="black"/>
<path d="M30.0409 43.3561C28.5567 43.3561 27.5906 42.7824 27.0034 42.228C26.1175 41.3923 25.766 40.3152 25.5564 39.6719L25.4657 39.4031C25.0429 38.262 24.8999 36.6192 24.8151 34.5039C24.8025 34.1866 24.7932 33.8588 24.7835 33.5116C24.7763 33.2581 24.7675 32.94 24.7548 32.6063C24.2275 32.859 23.663 33.0375 23.0686 33.1396C22.0223 33.3184 20.8976 33.2602 19.7248 32.967C18.8975 32.7603 18.0377 32.3317 17.5479 31.6693C16.1199 32.9202 14.7576 32.7502 14.0155 32.5029C12.7065 32.0663 11.5349 30.8399 10.4334 28.7525C9.64914 27.2662 8.89019 25.329 8.17764 22.9956C6.93733 18.9316 6.14927 14.6513 6.07924 13.2465C5.85902 8.84757 7.0428 5.70207 9.59767 3.89771C13.6287 1.05048 19.7353 2.72448 21.9616 3.48469C23.4571 2.58315 25.2168 2.14398 27.2055 2.17604C28.2737 2.19333 29.2904 2.28741 30.235 2.45532C31.22 2.14566 33.1666 1.70101 35.3945 1.72843C39.4993 1.77737 42.9009 3.37712 45.2309 6.35471C46.8935 8.47927 46.0717 12.9402 45.4334 15.4107C44.5361 18.8848 42.9629 22.5809 41.0307 25.7981C41.5556 25.8019 42.3153 25.7386 43.3962 25.5159C45.5283 25.0754 46.1515 26.2187 46.3206 26.7304C46.9986 28.7837 44.0518 30.3349 43.1325 30.7614C41.9546 31.3086 40.0347 31.6415 38.4619 31.5693L38.3932 31.5647L37.9802 31.5284L37.9392 31.8727L37.9 32.2097C37.7945 36.2867 37.2119 38.8686 36.0134 40.5751C34.7575 42.3634 33.0113 42.865 31.4736 43.1945C30.95 43.3072 30.4733 43.3561 30.0409 43.3561ZM26.9182 28.5171C27.8763 29.2836 27.9602 30.726 28.0349 33.4218C28.0442 33.758 28.053 34.0765 28.0648 34.374C28.1011 35.2742 28.1859 37.3828 28.5158 38.2738C28.5626 38.3995 28.6044 38.5277 28.6483 38.6627C29.0162 39.79 29.2009 40.3549 30.7918 40.014C32.1279 39.728 32.8143 39.4711 33.3518 38.7058C34.1331 37.5929 34.5701 35.3557 34.6503 32.0541L36.2754 32.0937L34.6613 31.9001L34.7085 31.4972C34.8633 30.1691 34.9747 29.2089 35.8628 28.5744C36.5749 28.0652 37.387 28.1146 38.0337 28.231C37.3233 27.6948 37.1267 27.0646 37.0744 26.8064L36.939 26.139L37.3195 25.5736C39.5133 22.3185 41.3227 18.3178 42.2837 14.5973C43.2709 10.7743 42.9697 8.74379 42.6689 8.35988C38.6838 3.26743 31.7723 5.36963 31.0509 5.60883L30.9285 5.67465L30.3168 5.78898L30.0033 5.72401C29.1398 5.54471 28.1804 5.44557 27.1515 5.42869C25.5353 5.40169 24.2317 5.78349 23.1626 6.59476L22.421 7.15712L21.5599 6.80232C19.7214 6.05054 14.3197 4.53896 11.4695 6.55763C9.8875 7.67813 9.16694 9.87399 9.32725 13.084C9.37999 14.1438 10.1005 18.1554 11.2877 22.0468C12.9292 27.424 14.421 29.2098 15.0437 29.4178C15.1521 29.4545 15.4343 29.2351 15.7149 28.8984C17.5399 26.7034 19.2755 24.8738 19.3485 24.7966L20.2897 23.8064L21.4275 24.5624C21.886 24.8674 22.3919 25.04 22.9116 25.0725L25.6255 22.7581L25.2324 26.7701C25.2235 26.8604 25.2193 26.9827 25.2547 27.2105L25.3728 27.9712L24.8611 28.5441L24.802 28.6103L26.293 29.2988L26.9182 28.5171Z" fill="black"/>
<path d="M43.7256 27.1089C38.9939 28.0847 38.6686 26.4828 38.6686 26.4828C43.6645 19.07 45.7528 9.6601 43.9505 7.35709C39.0336 1.07452 30.5226 4.04579 30.3805 4.12299L30.3345 4.13101C29.3996 3.93737 28.3538 3.82177 27.178 3.80279C25.037 3.76777 23.4128 4.36388 22.1805 5.29834C22.1805 5.29834 6.99721 -0.956382 7.70343 13.165C7.85362 16.1692 12.0095 35.8965 16.9661 29.9379C18.7776 27.7594 20.528 25.9171 20.528 25.9171C21.3975 26.4946 22.4383 26.7891 23.5296 26.6832L23.6144 26.6115C23.5883 26.8819 23.6001 27.1464 23.6482 27.4594C22.3716 28.8866 22.7462 29.1372 20.1939 29.6625C17.6107 30.1949 19.1282 31.1424 20.1192 31.39C21.3203 31.6908 24.0988 32.1165 25.9761 29.4878L25.901 29.7878C26.4014 30.1885 26.7528 32.3945 26.6937 34.3942C26.6346 36.3939 26.5954 37.7667 26.9899 38.8391C27.3843 39.9111 27.7771 42.3242 31.1327 41.6053C33.9365 41.0042 35.3894 39.447 35.5919 36.8499C35.7353 35.0034 36.0598 35.2764 36.0804 33.6251L36.3411 32.8434C36.6411 30.34 36.3888 29.5325 38.1164 29.9084L38.5362 29.9451C39.8077 30.0033 41.4716 29.7405 42.4482 29.2866C44.5517 28.3104 45.7992 26.6807 43.7256 27.1089Z" fill="#636466"/>
<path d="M30.2105 42.3537C27.413 42.3541 26.5271 40.1389 26.1643 39.2331C25.634 37.9059 25.5192 32.754 25.6373 28.5289C25.6458 28.2293 25.8934 27.9927 26.1946 28.002C26.4937 28.0104 26.7296 28.2597 26.7215 28.5592C26.5853 33.4323 26.7789 37.8481 27.1713 38.8302C27.7843 40.3625 28.7136 41.7028 31.3423 41.14C33.8377 40.6046 34.7722 39.6584 35.1882 37.2461C35.5079 35.3945 36.1391 30.1274 36.2167 29.0879C36.239 28.7892 36.4981 28.5647 36.7976 28.5875C37.0963 28.6099 37.3203 28.8702 37.298 29.1684C37.217 30.2501 36.5884 35.5075 36.2563 37.4304C35.7649 40.2802 34.4946 41.5728 31.5693 42.2002C31.0728 42.306 30.6209 42.3537 30.2105 42.3537ZM15.0436 31.5347C14.7766 31.5352 14.5344 31.4862 14.3248 31.4162C12.5077 30.81 10.7772 27.8509 9.18083 22.6205C7.96583 18.6389 7.19591 14.4834 7.12841 13.133C6.92802 9.12938 7.9595 6.29649 10.1933 4.71361C14.6129 1.58203 22.048 4.56427 22.3623 4.69252C22.6395 4.806 22.7724 5.12241 22.6589 5.39958C22.5458 5.67633 22.229 5.80964 21.9523 5.69616V5.69658C21.8805 5.66705 14.7508 2.81095 10.8181 5.59997C8.90788 6.95461 8.0308 9.47067 8.21094 13.0794C8.26789 14.2168 8.98719 18.2731 10.2178 22.3045C11.6429 26.9734 13.265 29.9202 14.6677 30.3877C14.8875 30.4615 15.5575 30.6847 16.516 29.5329C18.3182 27.3645 19.9741 25.634 19.9905 25.6167C20.1977 25.4003 20.5411 25.3935 20.7571 25.6002C20.9731 25.8074 20.9807 26.1508 20.7735 26.3668C20.7571 26.3836 19.1265 28.0884 17.3496 30.2261C16.508 31.2377 15.7009 31.5347 15.0436 31.5347ZM38.6349 26.9662C38.5307 26.9662 38.4252 26.9363 38.3324 26.8734C38.0839 26.7064 38.0181 26.3693 38.1856 26.1208C43.2358 18.6266 45.0086 9.57192 43.4902 7.63214C41.5791 5.19033 38.8804 3.91458 35.4695 3.84159C32.9438 3.78675 30.9361 4.4318 30.6083 4.54444L30.526 4.57777C30.1961 4.68155 29.943 4.50056 29.8476 4.2892C29.7346 4.03903 29.8274 3.7433 30.062 3.60113L30.2079 3.54122L30.2008 3.54333L30.2083 3.5408C30.7656 3.33703 32.8037 2.72531 35.3286 2.75442C39.1032 2.79408 42.2208 4.24997 44.3445 6.96347C45.3494 8.24766 45.3515 11.2063 44.3509 15.0803C43.3308 19.0299 41.4112 23.2753 39.085 26.727C38.9804 26.8827 38.8091 26.9662 38.6349 26.9662ZM38.8926 30.4353C38.0303 30.4353 37.2575 30.3142 36.7947 30.0367C36.3188 29.7519 36.2281 29.3642 36.2163 29.1587C36.0863 26.8789 37.3444 26.4819 37.986 26.301C37.8966 26.166 37.7692 26.0069 37.638 25.8428C37.2638 25.3754 36.7516 24.735 36.3568 23.7773C36.2952 23.628 36.1011 23.2799 35.8767 22.8774C34.6604 20.6968 32.13 16.1587 33.7555 13.8345C34.5081 12.7592 36.0058 12.336 38.213 12.5723C37.5637 10.5941 34.4714 4.40564 27.135 4.28541C24.9282 4.24828 23.1183 4.92708 21.7586 6.29986C18.7139 9.37491 18.8245 14.9386 18.8257 14.9939C18.8338 15.2934 18.5971 15.5423 18.298 15.5499C17.9984 15.5592 17.7495 15.3217 17.7419 15.0221C17.7352 14.7753 17.6213 8.937 20.9883 5.53669C22.564 3.94538 24.6379 3.15984 27.1527 3.20077C31.8473 3.27797 34.8684 5.66409 36.5765 7.65281C38.4379 9.81956 39.3508 12.2099 39.4259 13.0073C39.482 13.6004 39.0563 13.7194 38.9703 13.7367L38.7749 13.7413C36.6086 13.3945 35.219 13.635 34.6444 14.4564C33.4078 16.2232 35.8016 20.5158 36.8238 22.3493C37.0849 22.8167 37.2731 23.1546 37.3591 23.3634C37.6949 24.1777 38.1328 24.7248 38.4847 25.1644C38.7939 25.5513 39.0622 25.8862 39.1584 26.2803C39.2027 26.3583 39.8347 27.2924 43.583 26.5186C44.5226 26.325 45.0858 26.4908 45.2579 27.0114C45.5967 28.0361 43.6961 29.2309 42.644 29.7198C41.6998 30.1582 40.195 30.4353 38.8926 30.4353ZM37.2975 29.0693C37.4161 29.1895 38.0109 29.3963 39.2432 29.3435C40.3384 29.2963 41.4939 29.0579 42.1875 28.7364C43.0743 28.3247 43.6657 27.8644 43.9724 27.5501L43.802 27.5813C41.4053 28.0762 39.7102 28.0104 38.764 27.3852C38.696 27.3409 38.6357 27.2945 38.5805 27.2489C38.4779 27.2894 38.383 27.316 38.3155 27.335C37.7785 27.4856 37.2233 27.6413 37.2975 29.0693ZM21.816 32.0979C21.2207 32.0979 20.5942 32.0174 19.9543 31.8566C19.2915 31.6908 18.1735 31.1917 18.1908 30.372C18.2098 29.4519 19.5476 29.176 20.0517 29.0723C21.8708 28.6976 21.9894 28.5474 22.5581 27.8256C22.7239 27.6151 22.9302 27.3531 23.2111 27.0388C23.6288 26.5718 24.0853 26.3347 24.5679 26.3347C24.9037 26.3347 25.1796 26.449 25.3614 26.5241C25.9419 26.7646 26.4262 27.3459 26.6254 28.042C26.8051 28.6698 26.7194 29.2739 26.384 29.743C25.2838 31.2841 23.7043 32.0979 21.816 32.0979ZM19.3619 30.4189C19.5256 30.545 19.853 30.7138 20.2171 30.8053C20.7714 30.9437 21.3089 31.0141 21.816 31.0141C23.3609 31.0141 24.6008 30.3742 25.5019 29.1132C25.6896 28.8499 25.6335 28.5162 25.5833 28.3403C25.4779 27.9724 25.2163 27.6379 24.9467 27.5257C24.8003 27.4649 24.6793 27.4185 24.5679 27.4185C24.508 27.4185 24.3261 27.4185 24.0194 27.7615C23.7604 28.0509 23.5744 28.2871 23.4094 28.496C22.7015 29.395 22.3771 29.7 20.2702 30.1341C19.7564 30.2404 19.4927 30.3476 19.3619 30.4189ZM23.5309 27.918C23.2677 27.918 23.0369 27.726 22.9955 27.4582C22.9816 27.3683 22.9728 27.2776 22.9685 27.1865C21.5873 27.1603 20.255 26.568 19.2438 25.5125C17.9651 24.1781 17.3829 22.3294 17.647 20.4407C17.9339 18.3895 17.8267 16.5788 17.7689 15.606C17.7529 15.3356 17.7415 15.1403 17.7424 15.0048C17.7432 14.8335 17.7466 14.3783 19.2674 13.6076C19.8083 13.3334 20.8929 12.855 22.0775 12.7322C24.041 12.5297 25.3348 13.4038 25.7221 15.1943C26.7675 20.0289 25.8048 22.1674 25.102 23.7288C24.9708 24.019 24.8472 24.2941 24.7484 24.5599L24.6611 24.7949C24.2899 25.7905 23.9688 26.6507 24.0675 27.2936C24.1127 27.5898 23.9098 27.8661 23.614 27.9121L23.5309 27.918ZM18.83 15.1546L18.8515 15.5419C18.9114 16.5523 19.0228 18.433 18.7207 20.5913C18.503 22.1489 18.9789 23.6697 20.0264 24.7628C20.8541 25.6268 21.9442 26.1035 23.0643 26.1035H23.0875C23.2132 25.5749 23.4212 25.0172 23.6452 24.416L23.7321 24.1827C23.8439 23.8823 23.9747 23.5917 24.1131 23.2841C24.7898 21.7806 25.6318 19.9091 24.662 15.4233C24.4696 14.5353 24.0038 14.021 23.2381 13.8514C21.6654 13.5038 19.3219 14.6867 18.83 15.1546ZM22.102 14.9247C22.075 15.1162 22.4534 15.6279 22.9462 15.6963C23.4385 15.765 23.86 15.3651 23.8865 15.1736C23.9131 14.9816 23.5351 14.7707 23.042 14.7019C22.5496 14.6332 22.1282 14.7327 22.102 14.9247ZM23.0597 15.8853L22.9213 15.8756C22.6154 15.833 22.3062 15.6402 22.0948 15.3596C22.0206 15.2613 21.8991 15.0698 21.9231 14.8994C21.9577 14.6492 22.2623 14.4998 22.7386 14.4998C22.8454 14.4998 22.9559 14.5079 23.0677 14.523C23.3276 14.5593 23.5693 14.6344 23.7478 14.734C24.057 14.907 24.0798 15.0993 24.0658 15.1993C24.0275 15.4748 23.5879 15.8853 23.0597 15.8853ZM22.2817 14.9567C22.2973 15.0749 22.5897 15.4651 22.9711 15.5178L23.0593 15.5242C23.4111 15.5242 23.6743 15.247 23.7051 15.1563C23.6727 15.0947 23.4465 14.9407 23.0171 14.8816C22.9221 14.8681 22.8281 14.8614 22.7382 14.8614C22.4631 14.861 22.3159 14.923 22.2817 14.9567ZM37.0984 14.5336C37.125 14.7255 36.7474 15.2373 36.2542 15.3056C35.7615 15.374 35.34 14.9745 35.313 14.7825C35.2869 14.591 35.6649 14.3796 36.1576 14.3113C36.6504 14.2421 37.0714 14.3425 37.0984 14.5336ZM36.1408 15.4035C35.6661 15.4035 35.2573 15.0344 35.2236 14.7952C35.1848 14.5079 35.6577 14.2893 36.1454 14.2218C36.2525 14.2066 36.3589 14.199 36.4614 14.199C36.882 14.199 37.1604 14.3227 37.1883 14.5214C37.2064 14.6505 37.1077 14.8492 36.9373 15.028C36.825 15.1462 36.5888 15.3508 36.2673 15.3951L36.1408 15.4035ZM36.461 14.3796C36.3669 14.3796 36.269 14.3868 36.1699 14.4003C35.6796 14.4682 35.3881 14.6652 35.402 14.7707C35.4185 14.8863 35.7311 15.2229 36.1403 15.2229L36.2412 15.2158C36.5086 15.1782 36.7094 15.004 36.8052 14.9032C36.9554 14.745 37.0153 14.5965 37.0081 14.5454C36.9993 14.4792 36.8187 14.3796 36.461 14.3796ZM37.8084 25.5395C37.7046 25.5395 37.6 25.5099 37.5072 25.4479C37.2583 25.2809 37.1916 24.9446 37.3583 24.6957C38.5125 22.9715 38.3012 21.2127 38.097 19.5126C38.0097 18.7878 37.9198 18.039 37.9434 17.3197C37.967 16.5801 38.0607 15.9701 38.1518 15.3795C38.2594 14.6804 38.3611 14.0193 38.3189 13.2355C38.3024 12.9368 38.5319 12.6816 38.831 12.6647C39.131 12.6487 39.3854 12.8782 39.4018 13.1773C39.4499 14.0733 39.3348 14.8209 39.2234 15.5444C39.1373 16.1025 39.0483 16.6797 39.0268 17.3543C39.0061 17.9909 39.0875 18.6671 39.1736 19.3826C39.3913 21.1912 39.6373 23.2411 38.2594 25.2986C38.1548 25.4547 37.9831 25.5395 37.8084 25.5395Z" fill="white"/>
<path d="M1.19601 43.5307C1.65712 43.454 2.25998 43.3882 3.02822 43.3882C3.97111 43.3882 4.66256 43.6075 5.10131 44.0024C5.50715 44.3534 5.74847 44.8909 5.74847 45.5494C5.74847 46.2185 5.55061 46.745 5.17767 47.1289C4.67311 47.6664 3.85045 47.9406 2.91811 47.9406C2.63292 47.9406 2.36967 47.9296 2.15072 47.8748V50.8368H1.19601V43.5307ZM2.15072 47.0956C2.35912 47.1504 2.62237 47.1724 2.94047 47.1724C4.09176 47.1724 4.79419 46.613 4.79419 45.5929C4.79419 44.6167 4.10315 44.145 3.05015 44.145C2.63334 44.145 2.31525 44.1779 2.15072 44.2218V47.0956ZM11.529 48.1376C11.529 50.101 10.1685 50.957 8.88511 50.957C7.4482 50.957 6.34036 49.904 6.34036 48.2254C6.34036 46.4484 7.50304 45.4064 8.97286 45.4064C10.4979 45.406 11.529 46.5142 11.529 48.1376ZM7.317 48.1925C7.317 49.3552 7.98609 50.2327 8.92941 50.2327C9.85078 50.2327 10.5414 49.3661 10.5414 48.1705C10.5414 47.2711 10.0921 46.1303 8.95092 46.1303C7.80975 46.1303 7.317 47.1833 7.317 48.1925ZM12.6145 49.8487C12.8997 50.0352 13.4042 50.2327 13.8869 50.2327C14.5889 50.2327 14.9179 49.8817 14.9179 49.4429C14.9179 48.9822 14.6441 48.7299 13.9307 48.4667C12.9765 48.1267 12.5267 47.6002 12.5267 46.964C12.5267 46.1084 13.2178 45.4064 14.3585 45.4064C14.896 45.4064 15.3681 45.56 15.6642 45.7355L15.4229 46.4375C15.2145 46.3058 14.8306 46.1303 14.337 46.1303C13.7666 46.1303 13.4485 46.4594 13.4485 46.8543C13.4485 47.293 13.767 47.4905 14.4581 47.7537C15.3795 48.1047 15.8511 48.5654 15.8511 49.3552C15.8511 50.2875 15.1272 50.9456 13.8658 50.9456C13.2844 50.9456 12.747 50.803 12.374 50.5837L12.6145 49.8487ZM18.2528 44.002V45.5266H19.6345V46.2615H18.2528V49.1244C18.2528 49.7825 18.4389 50.1554 18.9768 50.1554C19.2291 50.1554 19.4155 50.1225 19.5362 50.0896L19.5801 50.8136C19.394 50.8904 19.0974 50.9452 18.7249 50.9452C18.2752 50.9452 17.9128 50.8026 17.6825 50.5394C17.4087 50.2542 17.3095 49.7825 17.3095 49.1573V46.2615H16.4869V45.5266H17.3095V44.2543L18.2528 44.002ZM25.229 45.5271C25.2066 45.911 25.1851 46.3387 25.1851 46.9859V50.0681C25.1851 51.2857 24.9438 52.0315 24.4282 52.4926C23.9127 52.9753 23.1668 53.1288 22.4977 53.1288C21.8616 53.1288 21.1596 52.9753 20.7314 52.6901L20.9727 51.9552C21.3237 52.1745 21.8721 52.372 22.5302 52.372C23.5174 52.372 24.2414 51.8564 24.2414 50.5183V49.9259H24.2194C23.9233 50.4195 23.3529 50.8144 22.5302 50.8144C21.214 50.8144 20.2707 49.6956 20.2707 48.2254C20.2707 46.4265 21.4443 45.4064 22.6619 45.4064C23.5837 45.4064 24.0882 45.889 24.3186 46.3278H24.3405L24.3844 45.5271H25.229ZM24.2308 47.6221C24.2308 47.4576 24.2198 47.315 24.176 47.1833C24.0005 46.6239 23.5288 46.1632 22.8268 46.1632C21.905 46.1632 21.2473 46.942 21.2473 48.1705C21.2473 49.2126 21.7738 50.0791 22.8158 50.0791C23.4082 50.0791 23.9456 49.7062 24.154 49.0919C24.2089 48.9274 24.2312 48.7409 24.2312 48.5764V47.6221H24.2308ZM26.7203 47.1833C26.7203 46.5581 26.7093 46.0207 26.6764 45.5271H27.5214L27.5539 46.5691H27.5978C27.8391 45.8561 28.4205 45.4064 29.0676 45.4064C29.1773 45.4064 29.2537 45.4174 29.3414 45.4393V46.3497C29.2431 46.3278 29.144 46.3168 29.0128 46.3168C28.3327 46.3168 27.8497 46.8323 27.7185 47.5563C27.6965 47.6879 27.6746 47.8415 27.6746 48.006V50.8359H26.7203V47.1833ZM30.7353 48.357C30.7572 49.6623 31.5904 50.1997 32.5557 50.1997C33.2471 50.1997 33.6635 50.0791 34.0255 49.9255L34.19 50.6166C33.85 50.7701 33.2686 50.9456 32.424 50.9456C30.7897 50.9456 29.8135 49.8707 29.8135 48.2692C29.8135 46.6678 30.7568 45.406 32.3034 45.406C34.0364 45.406 34.4971 46.9306 34.4971 47.9069C34.4971 48.1043 34.4752 48.2579 34.4642 48.3566H30.7353V48.357ZM33.5652 47.666C33.5758 47.0517 33.3125 46.0974 32.227 46.0974C31.2508 46.0974 30.823 46.9969 30.7458 47.666H33.5652Z" fill="black"/>
<path d="M35.594 49.6732C36.0218 49.9365 36.647 50.1559 37.3052 50.1559C38.2814 50.1559 38.8517 49.6403 38.8517 48.8945C38.8517 48.2034 38.4569 47.8086 37.4587 47.4247C36.2522 46.9969 35.5063 46.3717 35.5063 45.3296C35.5063 44.1779 36.4606 43.3223 37.8975 43.3223C38.6543 43.3223 39.2027 43.4978 39.5318 43.6843L39.2686 44.4631C39.0272 44.3315 38.5337 44.1121 37.8646 44.1121C36.8554 44.1121 36.4715 44.7154 36.4715 45.2199C36.4715 45.911 36.9208 46.251 37.9413 46.6459C39.1918 47.1289 39.828 47.7318 39.828 48.8177C39.828 49.9584 38.9834 50.9456 37.2393 50.9456C36.5264 50.9456 35.7476 50.7372 35.3523 50.474L35.594 49.6732ZM47.2319 51.9218C46.2337 51.6586 45.2575 51.3624 44.4019 51.0663C44.2484 51.0114 44.0948 50.9566 43.9522 50.9566C42.1972 50.8908 40.6945 49.5965 40.6945 47.2162C40.6945 44.847 42.1424 43.3223 44.1387 43.3223C46.146 43.3223 47.4517 44.8799 47.4517 47.0627C47.4517 48.9603 46.5742 50.1778 45.3457 50.6056V50.6495C46.0806 50.8359 46.8813 51.0114 47.5065 51.1211L47.2319 51.9218ZM46.4421 47.1066C46.4421 45.6258 45.6747 44.1007 44.1058 44.1007C42.4934 44.1007 41.7036 45.5924 41.7146 47.1943C41.7036 48.7628 42.5702 50.1778 44.0619 50.1778C45.587 50.1778 46.4421 48.7957 46.4421 47.1066ZM48.6903 43.443H49.645V50.0352H52.804V50.8359H48.6903V43.443Z" fill="#636466"/>
</svg>

