<svg width="100" height="30" viewBox="0 0 100 30" fill="none" xmlns="http://www.w3.org/2000/svg">
<path d="M40.6308 14.9003C40.6308 11.2018 39.6883 9.30305 37.8033 9.19948C37.0533 9.1586 36.321 9.29306 35.6091 9.60195C35.0401 9.82998 34.6577 10.0553 34.4564 10.2833V19.1121C35.6619 19.9589 36.7326 20.3513 37.6662 20.2905C39.6412 20.1433 40.6308 18.349 40.6308 14.9003ZM42.9549 15.0539C42.9549 16.9326 42.562 18.4925 41.7697 19.7326C40.8873 21.1372 39.6639 21.8585 38.0996 21.8994C36.9201 21.9421 35.7057 21.5278 34.4564 20.6611V28.6859L32.4343 27.8783V10.0662C32.7663 9.61194 33.1933 9.22038 33.7104 8.88877C34.9134 8.10383 36.3763 7.70046 38.0972 7.68047L38.1264 7.71227C39.6997 7.69046 40.9116 8.41272 41.7624 9.87904C42.5571 11.2236 42.9549 12.947 42.9549 15.0539ZM55.3125 20.3195C55.3125 22.8388 55.0869 24.584 54.6355 25.5552C54.1817 26.5255 53.3188 27.3005 52.0451 27.8783C51.0126 28.3334 49.8948 28.5805 48.6958 28.6223L48.3613 27.1969C49.5798 27.0116 50.4386 26.8253 50.9363 26.64C51.9161 26.2693 52.589 25.6997 52.9584 24.9365C53.2547 24.3151 53.4008 23.1304 53.4008 21.3743V20.7856C52.0184 21.4879 50.5693 21.8376 49.0546 21.8376C48.0585 21.8376 47.1802 21.4879 46.4244 20.7856C45.5753 20.0206 45.1499 19.0494 45.1499 17.8738V8.45542L47.1721 7.68047V17.1607C47.1721 18.1727 47.4635 18.9531 48.048 19.4992C48.6324 20.047 49.3882 20.3095 50.3153 20.2896C51.2423 20.2677 52.2351 19.8653 53.2904 19.0812V8.02207H55.3125V20.3195ZM63.2054 21.775C62.9643 21.7968 62.7435 21.8067 62.5398 21.8067C61.396 21.8067 60.5047 21.5033 59.8674 20.891C59.2318 20.2787 58.9136 19.4347 58.9136 18.3581V9.44478H57.5287V8.02207H58.9136V4.24179L60.9333 3.43686V8.02207H63.2046V9.44478H60.9333V18.2963C60.9333 19.1457 61.1362 19.7472 61.5437 20.097C61.8928 20.3877 62.4489 20.553 63.2046 20.5957V21.775H63.2054ZM75.447 21.5896H73.4257V12.8553C73.4257 11.9668 73.2398 11.2018 72.8704 10.5622C72.4434 9.83997 71.8508 9.47839 71.0894 9.47839C70.1624 9.47839 69.0031 10.0262 67.6118 11.121V21.5905H65.5896V0.713173L67.6118 0V9.50928C68.9033 8.45724 70.315 7.9303 71.8476 7.9303C72.9183 7.9303 73.7853 8.33368 74.4493 9.13861C75.115 9.94354 75.447 10.9456 75.447 12.1439V21.5896ZM86.1941 14.5442C86.1941 13.1224 85.953 11.9495 85.4733 11.0201C84.9018 9.88903 84.0153 9.29215 82.8163 9.23037C80.5994 9.373 79.4929 11.1509 79.4929 14.5578C79.4929 16.1204 79.7234 17.4241 80.1878 18.4716C80.7804 19.8071 81.6701 20.464 82.8561 20.4422C85.0812 20.424 86.1941 18.458 86.1941 14.5442ZM88.4086 14.5587C88.4086 16.582 87.9459 18.2645 87.0229 19.61C86.0082 21.1145 84.6055 21.8694 82.8155 21.8694C81.041 21.8694 79.6585 21.1145 78.6608 19.61C77.7565 18.2654 77.3044 16.582 77.3044 14.5587C77.3044 12.6572 77.7939 11.0583 78.7721 9.75549C79.8046 8.37366 81.1627 7.68138 82.8423 7.68138C84.521 7.68138 85.8881 8.37456 86.9409 9.75549C87.9191 11.0583 88.4086 12.6572 88.4086 14.5587ZM100 21.5896H97.9779V12.3602C97.9779 11.3481 97.7059 10.5577 97.1612 9.98897C96.6173 9.42116 95.8916 9.14588 94.9865 9.16859C94.0261 9.18858 93.1129 9.54108 92.2459 10.2215V21.5905H90.2238V9.94173C91.3871 8.99325 92.4578 8.37365 93.436 8.08475C94.3582 7.81493 95.1724 7.68138 95.8737 7.68138C96.3535 7.68138 96.8048 7.73407 97.2294 7.83764C98.0241 8.04296 98.6695 8.42453 99.1671 8.98326C99.7224 9.60285 99.9992 10.346 99.9992 11.2145V21.5896H100Z" fill="#636466"/>
<path d="M12.4646 0.794019C11.4239 0.800378 10.4311 0.899404 9.55597 1.07293C6.98102 1.5826 6.51344 2.64827 6.51344 4.61245V7.20804H12.5985V8.07293H4.22991C2.46105 8.07293 0.912995 9.26307 0.428365 11.5252C-0.130137 14.1199 -0.155302 15.7398 0.428365 18.4471C0.861042 20.4631 1.89362 21.9003 3.66248 21.9003H5.75443V18.7896C5.75443 16.5411 7.49244 14.5587 9.55597 14.5587H15.6346C17.3263 14.5587 18.6771 12.9988 18.6771 11.0982V4.61245C18.6771 2.76728 17.2857 1.38 15.6346 1.07293C14.589 0.878509 13.5045 0.789476 12.4646 0.794019ZM9.17363 2.88266C9.80194 2.88266 10.3158 3.46683 10.3158 4.18455C10.3158 4.89954 9.80275 5.47916 9.17363 5.47916C8.54288 5.47916 8.03227 4.89954 8.03227 4.18455C8.03146 3.46683 8.54288 2.88266 9.17363 2.88266Z" fill="#636466"/>
<path d="M19.4361 8.07385V11.0983C19.4361 13.4422 17.6599 15.4154 15.6345 15.4154H9.55596C7.89101 15.4154 6.51343 17.0108 6.51343 18.8768V25.3626C6.51343 27.2069 7.94784 28.2944 9.55596 28.8231C11.4823 29.4572 13.3291 29.5717 15.6345 28.8231C17.1664 28.3271 18.6771 27.3277 18.6771 25.3626V22.767H12.5985V21.9021H21.7196C23.4885 21.9021 24.1476 20.5212 24.763 18.4489C25.3978 16.3158 25.371 14.2644 24.763 11.5271C24.3254 9.55743 23.4909 8.07476 21.7196 8.07476H19.4361V8.07385ZM16.0169 24.4968C16.6476 24.4968 17.1591 25.0746 17.1591 25.7905C17.1591 26.5082 16.6484 27.0915 16.0169 27.0915C15.3886 27.0915 14.8755 26.5082 14.8755 25.7905C14.8755 25.0746 15.3886 24.4968 16.0169 24.4968Z" fill="#636466"/>
</svg>

