<svg width="51" height="62" viewBox="0 0 51 62" fill="none" xmlns="http://www.w3.org/2000/svg">
<path d="M25.5 39.7454C29.1572 43.2906 32.7642 45.3877 35.6699 45.3877C36.6218 45.3877 37.5236 45.188 38.275 44.7386C40.8802 43.2406 41.832 39.4958 40.9303 34.1531C40.78 33.2044 40.5796 32.2557 40.3291 31.2571C41.331 30.9575 42.2328 30.6579 43.1346 30.3583C48.1945 28.411 51 25.7147 51 22.7687C51 19.7729 48.1945 17.0766 43.1346 15.1792C42.2328 14.8296 41.331 14.53 40.3291 14.2804C40.5796 13.2818 40.78 12.3331 40.9303 11.3844C41.7819 5.94184 40.8301 2.14705 38.2249 0.649109C37.4735 0.199726 36.5717 0 35.6198 0C32.7642 0 29.1071 2.09712 25.4499 5.64225C21.8428 2.09712 18.2358 0 15.3301 0C14.3782 0 13.4764 0.199726 12.7249 0.649109C10.1198 2.14705 9.16798 5.89191 10.0697 11.2346C10.22 12.1833 10.4204 13.132 10.6709 14.1306C9.66896 14.4302 8.76719 14.7298 7.86542 15.0294C2.8055 16.9767 0 19.673 0 22.6189C0 25.6148 2.8055 28.3111 7.86542 30.2085C8.76719 30.558 9.66896 30.8576 10.6709 31.1073C10.4204 32.1059 10.22 33.0546 10.0697 34.0033C9.21807 39.346 10.1699 43.1408 12.7249 44.5888C13.4764 45.0382 14.3782 45.2379 15.3301 45.2379C18.2358 45.3377 21.8428 43.2406 25.5 39.7454ZM22.6945 33.0047C23.5963 33.0546 24.5481 33.0546 25.5 33.0546C26.4519 33.0546 27.4037 33.0546 28.3055 33.0047C27.4037 34.203 26.4519 35.3015 25.5 36.3501C24.5481 35.3015 23.5963 34.203 22.6945 33.0047ZM16.4823 27.8617C16.9833 28.7106 17.4342 29.5095 17.9853 30.3084C16.4322 30.1087 14.9794 29.859 13.5766 29.5594C14.0275 28.2113 14.5285 26.8132 15.1297 25.4151C15.5304 26.214 15.9813 27.0628 16.4823 27.8617ZM13.5766 15.8283C14.9794 15.5287 16.4322 15.279 17.9853 15.0793C17.4843 15.8782 16.9833 16.6771 16.4823 17.5259C15.9813 18.3748 15.5304 19.1737 15.1297 20.0225C14.4784 18.5745 13.9774 17.1764 13.5766 15.8283ZM16.332 22.6689C16.9833 21.3207 17.6847 19.9726 18.4862 18.6244C19.2377 17.3262 20.0894 16.028 20.9411 14.7298C22.444 14.6299 23.947 14.58 25.5 14.58C27.1031 14.58 28.6061 14.6299 30.0589 14.7298C30.9607 16.028 31.7623 17.3262 32.5138 18.6244C33.3153 19.9726 34.0167 21.3207 34.668 22.6689C34.0167 24.017 33.3153 25.3652 32.5138 26.7133C31.7623 28.0115 30.9106 29.3098 30.0589 30.608C28.556 30.7078 27.053 30.7578 25.5 30.7578C23.8969 30.7578 22.3939 30.7078 20.9411 30.608C20.0393 29.3098 19.2377 28.0115 18.4862 26.7133C17.6847 25.3652 16.9833 24.017 16.332 22.6689ZM35.9204 19.9726L34.5678 17.476C34.0668 16.6272 33.6159 15.8283 33.0648 15.0294C34.6179 15.2291 36.0707 15.4787 37.4735 15.7783C37.0226 17.1764 36.5216 18.5745 35.9204 19.9726ZM35.9204 25.3652C36.5216 26.7633 37.0226 28.1613 37.4735 29.5095C36.0707 29.8091 34.6179 30.0587 33.0648 30.2585C33.5658 29.4596 34.0668 28.6606 34.5678 27.8118C35.0187 27.0628 35.4695 26.214 35.9204 25.3652ZM37.0727 42.6914C36.6719 42.941 36.1709 43.0409 35.6198 43.0409C33.165 43.0409 30.109 41.0436 27.1031 38.0478C28.556 36.4999 29.9587 34.7523 31.3615 32.805C33.7161 32.6052 35.9705 32.2557 38.0747 31.7564C38.3251 32.6552 38.4754 33.5539 38.6257 34.4527C39.3271 38.6969 38.776 41.7427 37.0727 42.6914ZM39.6778 16.3775C45.2888 17.9753 48.6454 20.422 48.6454 22.6689C48.6454 24.6162 46.3409 26.5635 42.2829 28.1114C41.4813 28.411 40.5796 28.7106 39.6778 28.9602C39.0265 26.913 38.2249 24.8159 37.223 22.6689C38.2249 20.5218 39.0766 18.4247 39.6778 16.3775ZM35.6699 2.29685C36.221 2.29685 36.6719 2.39671 37.1228 2.64637C38.776 3.59506 39.3772 6.59095 38.6758 10.8851C38.5255 11.7339 38.3251 12.6327 38.1248 13.5814C36.0206 13.132 33.7662 12.7824 31.4116 12.5328C30.0589 10.5855 28.6061 8.83786 27.1532 7.28999C30.1591 4.34404 33.2151 2.29685 35.6699 2.29685ZM28.3055 12.3331C27.4037 12.2831 26.4519 12.2831 25.5 12.2831C24.5481 12.2831 23.5963 12.2831 22.6945 12.3331C23.5963 11.1347 24.5481 10.0362 25.5 8.98766C26.4519 10.0362 27.4037 11.1846 28.3055 12.3331ZM13.9273 2.64637C14.3281 2.39671 14.8291 2.29685 15.3802 2.29685C17.835 2.29685 20.891 4.2941 23.8969 7.28999C22.444 8.83786 21.0413 10.5855 19.6385 12.5328C17.2839 12.7325 15.0295 13.082 12.9253 13.5814C12.6749 12.6826 12.5246 11.7838 12.3743 10.8851C11.6729 6.64088 12.224 3.645 13.9273 2.64637ZM11.3222 28.9602C5.7112 27.3624 2.35462 24.9158 2.35462 22.6689C2.35462 20.7215 4.65913 18.7742 8.71709 17.2263C9.51866 16.9268 10.4204 16.6272 11.3222 16.3775C11.9735 18.4247 12.775 20.5218 13.777 22.6689C12.775 24.8159 11.9234 26.963 11.3222 28.9602ZM12.3743 34.4527C12.5246 33.6039 12.725 32.7051 12.9253 31.7564C15.0295 32.2058 17.2839 32.5553 19.6385 32.805C20.9912 34.7523 22.444 36.4999 23.8969 38.0478C20.891 40.9937 17.835 43.0409 15.3802 43.0409C14.8291 43.0409 14.3782 42.941 13.9273 42.6914C12.224 41.7427 11.6729 38.6969 12.3743 34.4527ZM10.2701 55.0244C11.3723 53.6763 11.4224 52.1784 10.8212 50.6804C10.22 49.1825 8.96758 48.4834 7.41454 48.4335C5.5609 48.3836 3.65717 48.4335 1.80354 48.4335H1.45285V61.3657H2.9558V56.4725H5.31041C5.611 56.4725 5.86149 56.5723 6.01179 56.822L9.01768 61.4656C9.06778 61.5655 9.21807 61.7153 9.31827 61.7153H11.2721C10.0697 59.8678 8.91748 58.1202 7.71513 56.3227C8.76719 56.1729 9.66896 55.8234 10.2701 55.0244ZM2.9558 54.9246V49.9814H3.50688C4.65914 49.9814 5.86149 49.9314 7.01375 50.0313C8.3664 50.0812 9.31827 51.1298 9.31827 52.4779C9.31827 53.8261 8.21611 54.8747 6.86346 54.9246C5.6611 54.9745 4.45874 54.9246 2.9558 54.9246ZM22.3438 55.5737C21.5422 52.0785 18.336 51.1797 15.8811 52.2782C13.9774 53.1271 13.1257 54.7748 13.0756 56.822C13.0255 58.3699 13.4764 59.7679 14.6788 60.8165C16.0314 62.0148 17.6847 62.1646 19.388 61.8651C20.3399 61.6653 21.1915 61.2159 21.8428 60.5169C21.5923 60.1674 21.3418 59.8179 21.0914 59.5183C19.6886 60.7166 18.1356 61.1161 16.4322 60.3172C15.3301 59.7679 14.779 58.4198 14.6788 57.4212H22.444V56.772C22.4941 56.3227 22.444 55.9232 22.3438 55.5737ZM14.779 56.3726C14.6287 54.8747 16.1316 53.2768 17.7849 53.2768C19.6886 53.2269 20.891 54.3753 20.9411 56.3726H14.779ZM30.1591 52.0286C29.4077 51.8788 28.6061 51.8288 27.8546 51.8788C26.6523 51.9786 25.6002 52.5279 24.7485 53.4266C24.999 53.7762 25.1994 54.1257 25.5 54.5251C25.6002 54.4253 25.7004 54.3254 25.8006 54.2755C26.6022 53.5265 27.554 53.1271 28.7063 53.2269C29.6081 53.2768 30.4597 53.5764 30.7102 54.4752C30.9106 55.1742 30.8605 55.9232 30.9106 56.6722C30.7603 56.6722 30.7102 56.6223 30.6601 56.5723C29.4578 55.5737 28.1051 55.374 26.6523 55.7235C25.2996 56.073 24.4479 57.1216 24.3477 58.4697C24.2475 60.0176 24.9489 61.166 26.3016 61.7153C27.1532 62.0648 28.1051 62.0648 29.0069 61.8651C29.7083 61.7153 30.0088 61.3158 31.0108 60.7666V61.4157H32.4136C32.4136 59.4184 32.4637 56.9718 32.4136 54.6749C32.4136 53.2269 31.5619 52.3281 30.1591 52.0286ZM30.8605 58.3199C30.8104 58.4697 30.8605 58.6195 30.8605 58.7693C30.8605 59.8179 30.61 60.1674 29.6081 60.5668C28.9067 60.8165 28.1552 60.9164 27.4037 60.6667C26.5521 60.417 25.9509 59.6681 25.9509 58.8192C25.9008 57.9704 26.4519 57.1216 27.3035 56.8719C28.4558 56.4725 29.5079 56.7221 30.4597 57.4212C30.7603 57.6708 30.9607 57.9205 30.8605 58.3199ZM38.6758 53.3767C39.9784 52.9773 41.1807 53.2269 42.0825 54.3254L42.2328 54.4253C42.5835 54.1257 42.8841 53.8261 43.2849 53.4766C43.1346 53.3268 43.0845 53.2269 42.9843 53.0771C41.5314 51.5292 38.6758 51.3295 36.9224 52.5778C34.4676 54.3753 34.5177 57.8705 35.72 59.718C36.8723 61.4656 38.5255 62.0648 40.4794 61.8151C41.6316 61.6653 42.5835 61.1161 43.335 60.1674C42.9843 59.8678 42.6336 59.5682 42.2829 59.2187C42.1827 59.3185 42.1326 59.3685 42.0825 59.4683C40.7299 60.9663 38.4754 60.8165 37.2731 59.2187C36.5717 58.27 36.4214 57.1715 36.6218 56.073C36.722 54.8247 37.3733 53.8261 38.6758 53.3767ZM49.0963 60.1674C48.9961 60.2173 48.946 60.2673 48.946 60.2673C48.5452 60.5668 48.1444 60.6168 47.6935 60.467C47.2426 60.2672 47.1925 59.8678 47.1424 59.4683V53.7762C47.1424 53.6763 47.1424 53.876 47.1925 53.3767H49.0963V51.8788H47.0923V49.3822H45.5894V52.0785H44.2868C44.1866 52.0785 44.0363 52.1784 44.0363 52.2782C43.9862 52.6277 44.0363 52.8774 44.0363 53.3767H45.6395V59.7679C45.6395 60.5668 45.8399 61.2659 46.5413 61.6653C47.2927 62.1147 48.7456 62.0148 49.3969 61.4656C49.497 61.4157 49.5471 61.2159 49.5471 61.166C49.3969 60.8664 49.2466 60.5169 49.0963 60.1674Z" fill="#636466"/>
</svg>

