<svg width="44" height="44" viewBox="0 0 44 44" fill="none" xmlns="http://www.w3.org/2000/svg">
<path d="M7.35624 33.55C7.35624 34.1687 6.84061 34.7531 6.15311 34.7531C5.63749 34.7531 5.19061 34.8906 4.77811 35.2C4.33124 35.475 4.02186 35.8531 3.74686 36.3C3.19686 37.0219 2.92186 37.8812 2.81874 38.1906V42.4875C2.81874 43.1406 2.26874 43.6906 1.58124 43.6906C0.928113 43.6906 0.378113 43.1406 0.378113 42.4875V33.55C0.378113 32.8969 0.928113 32.3812 1.58124 32.3812C2.26874 32.3812 2.81874 32.8969 2.81874 33.55V33.7219C2.95624 33.55 3.12811 33.3781 3.29999 33.275C4.05624 32.7937 5.01874 32.3812 6.15311 32.3812C6.84061 32.3812 7.35624 32.8969 7.35624 33.55ZM6.70311 38.0187C6.73749 34.925 9.10936 32.3469 12.2375 32.3469C15.1937 32.3469 17.4969 34.5469 17.7031 37.6062V37.7094C17.7031 37.7437 17.7031 37.8812 17.6687 37.9156C17.6 38.4656 17.1187 38.8094 16.5 38.8094H9.28124C9.38436 39.325 9.65936 39.9094 10.0375 40.2875C10.5187 40.8375 11.4125 41.25 12.2031 41.3187C13.0281 41.3875 13.9906 41.1812 14.5406 40.7687C15.0219 40.2875 15.95 40.3219 16.225 40.7C16.5344 41.0094 16.7406 41.6969 16.225 42.1781C15.125 43.2094 13.7844 43.6562 12.1687 43.6562C9.10936 43.6562 6.70311 41.0781 6.70311 38.0187ZM9.14374 36.9187H15.5375C15.2969 36.025 14.1625 34.6844 12.2031 34.5125C10.2781 34.5812 9.34999 35.9906 9.14374 36.9187ZM29.1844 42.4531C29.1844 43.1062 28.6344 43.6906 27.9469 43.6906C27.3281 43.6906 26.8469 43.2437 26.7437 42.7281C25.8844 43.3125 24.7844 43.6906 23.65 43.6906C20.5906 43.6906 18.15 41.1125 18.15 38.0531C18.15 34.9594 20.5906 32.3812 23.65 32.3812C24.75 32.3812 25.85 32.7594 26.675 33.3437V29.0469C26.675 28.3937 27.225 27.8094 27.9125 27.8094C28.6 27.8094 29.15 28.3594 29.15 29.0469V38.0531L29.1844 42.4531ZM23.6844 34.8219C22.8594 34.8219 22.1375 35.1656 21.5531 35.75C21.0031 36.3 20.6594 37.125 20.6594 38.0187C20.6594 38.8781 21.0031 39.7031 21.5531 40.2531C22.1031 40.8375 22.8594 41.1812 23.6844 41.1812C24.5094 41.1812 25.2312 40.8375 25.8156 40.2531C26.3656 39.7031 26.7094 38.8781 26.7094 38.0187C26.7094 37.125 26.3656 36.3 25.8156 35.75C25.2656 35.1656 24.5437 34.8219 23.6844 34.8219ZM33.5156 29.5281C33.5156 30.2156 33 30.7656 32.2781 30.7656C31.5906 30.7656 31.0406 30.2156 31.0406 29.5281V29.0469C31.0406 28.3594 31.5906 27.8094 32.2781 27.8094C32.9656 27.8094 33.5156 28.3594 33.5156 29.0469V29.5281ZM33.5156 33.6187V42.4531C33.5156 43.1406 33 43.6906 32.2781 43.6906C31.5906 43.6906 31.0406 43.1406 31.0406 42.4531V33.6187C31.0406 32.8969 31.5906 32.3812 32.2781 32.3812C33 32.3812 33.5156 32.8969 33.5156 33.6187ZM35.0625 40.425C35.475 39.875 36.2656 39.8062 36.7469 40.2531C37.3312 40.7344 38.3625 41.2844 39.2219 41.25C39.8406 41.25 40.3906 41.0437 40.7687 40.8031C41.0781 40.5281 41.1812 40.3219 41.1812 40.1156C41.1812 40.0125 41.1469 39.9437 41.1125 39.875C41.0781 39.8062 41.0094 39.7031 40.8031 39.6C40.4937 39.3594 39.8062 39.1187 38.9812 38.9812H38.9469C38.2594 38.8437 37.5719 38.6719 36.9875 38.3969C36.3687 38.0875 35.8187 37.7094 35.4406 37.0906C35.2 36.6781 35.0625 36.1969 35.0625 35.6812C35.0625 34.65 35.6469 33.7562 36.4031 33.2062C37.1937 32.6562 38.1562 32.3812 39.1875 32.3812C40.7344 32.3812 41.8687 33.1375 42.5906 33.6187C43.1406 33.9969 43.2781 34.7187 42.9687 35.3031C42.5906 35.8531 41.8687 35.9906 41.2844 35.6125C40.5625 35.1312 39.9094 34.7875 39.1875 34.7875C38.6375 34.7875 38.1219 34.9594 37.8125 35.2C37.5031 35.4062 37.4344 35.6125 37.4344 35.7156C37.4344 35.8187 37.4344 35.8187 37.4687 35.8875C37.5031 35.9219 37.5719 36.025 37.7094 36.1281C38.0187 36.3344 38.6031 36.5406 39.3594 36.6781L39.3937 36.7125H39.4281C40.1844 36.85 40.8719 37.0562 41.525 37.3656C42.1437 37.6406 42.7625 38.0531 43.1406 38.7062C43.4156 39.1531 43.5875 39.6687 43.5875 40.1844C43.5875 41.2844 42.9687 42.2125 42.1781 42.7969C41.3531 43.3469 40.3562 43.6906 39.2219 43.6906C37.4687 43.6562 36.0937 42.8656 35.2 42.1437C34.7187 41.6969 34.65 40.9406 35.0625 40.425Z" fill="#636466"/>
<path d="M36.7469 21.5531C35.0281 22.4469 26.1938 26.0906 24.3031 27.0531C22.4125 28.05 21.3813 28.0156 19.9031 27.3281C18.3906 26.6062 9.00626 22.825 7.28751 22C6.42814 21.5875 5.98126 21.2437 5.98126 20.9344V17.7031C5.98126 17.7031 18.2188 15.0219 20.2125 14.3344C22.2063 13.6125 22.8938 13.6125 24.5438 14.2312C26.2281 14.85 36.3 16.6719 37.95 17.2562V20.4531C37.9844 20.7625 37.6063 21.1062 36.7469 21.5531Z" fill="#636466"/>
<path d="M36.7469 18.3219C35.0281 19.2156 26.1938 22.8594 24.3031 23.8219C22.4125 24.8188 21.3813 24.7844 19.9031 24.0969C18.3906 23.375 9.00626 19.5938 7.28751 18.7688C5.60313 17.9438 5.56876 17.3938 7.21876 16.7406C8.86876 16.0875 18.2531 12.4094 20.2125 11.7219C22.2063 11 22.8938 11 24.5438 11.6188C26.2281 12.2375 35.0281 15.7438 36.6781 16.3281C38.3969 16.9469 38.4656 17.4281 36.7469 18.3219Z" fill="#636466"/>
<path d="M36.7469 16.2937C35.0281 17.1875 26.1938 20.8312 24.3031 21.7937C22.4125 22.7906 21.3813 22.7562 19.9031 22.0687C18.3906 21.3469 9.00626 17.5312 7.28751 16.7406C6.42814 16.3281 5.98126 15.9844 5.98126 15.675V12.4437C5.98126 12.4437 18.2188 9.7625 20.2125 9.075C22.2063 8.35312 22.8938 8.35312 24.5438 8.97187C26.2281 9.59062 36.3 11.4125 37.95 11.9969V15.1937C37.9844 15.5031 37.6063 15.8469 36.7469 16.2937Z" fill="#636466"/>
<path d="M36.7469 13.0625C35.0281 13.9562 26.1937 17.6 24.3031 18.5625C22.4125 19.5594 21.3812 19.525 19.9031 18.8375C18.425 18.1156 9.00624 14.3344 7.32187 13.5094C5.63749 12.6844 5.60312 12.1344 7.25312 11.4812C8.90312 10.8281 18.2875 7.15 20.2469 6.4625C22.2406 5.74062 22.9281 5.74062 24.5781 6.35937C26.2625 6.97812 35.0625 10.4844 36.7125 11.0687C38.3969 11.6531 38.4656 12.1687 36.7469 13.0625Z" fill="#636466"/>
<path d="M36.7469 10.8281C35.0281 11.7219 26.1937 15.3656 24.3031 16.3281C22.4125 17.325 21.3813 17.2906 19.9031 16.6031C18.425 15.8813 9.00625 12.1 7.32187 11.275C6.4625 10.8625 6.01562 10.5188 6.01562 10.2094V6.97813C6.01562 6.97813 18.2531 4.29688 20.2469 3.60938C22.2406 2.8875 22.9281 2.8875 24.5781 3.50625C26.2625 4.125 36.3344 5.94688 37.9844 6.53125V9.72813C37.9844 10.0031 37.6063 10.3813 36.7469 10.8281Z" fill="#636466"/>
<path d="M36.7469 7.59687C35.0281 8.49062 26.1937 12.1344 24.3031 13.0969C22.4125 14.0937 21.3812 14.0594 19.9031 13.3719C18.425 12.65 9.00624 8.86875 7.32187 8.04375C5.63749 7.21875 5.60312 6.66875 7.25312 6.01562C8.90312 5.3625 18.2875 1.68437 20.2469 0.996875C22.2406 0.275 22.9281 0.275 24.5781 0.89375C26.2625 1.5125 35.0625 5.01875 36.7125 5.60312C38.3969 6.1875 38.4656 6.70312 36.7469 7.59687Z" fill="#636466"/>
<path d="M26.1937 4.46874L23.4094 4.74374L22.7906 6.25624L21.7937 4.57187L18.5969 4.29687L20.9687 3.43749L20.2812 2.13124L22.5156 2.99062L24.6125 2.30312L24.0281 3.67812L26.1937 4.46874ZM22.6187 11.7219L17.4625 9.55624L24.8875 8.42187L22.6187 11.7219Z" fill="white"/>
<path d="M15.4688 8.3875C17.652 8.3875 19.4219 7.69494 19.4219 6.84062C19.4219 5.98631 17.652 5.29375 15.4688 5.29375C13.2855 5.29375 11.5156 5.98631 11.5156 6.84062C11.5156 7.69494 13.2855 8.3875 15.4688 8.3875Z" fill="white"/>
<path d="M29.4594 4.88124L33.8594 6.59999L29.4594 8.35312V4.88124Z" fill="#636466"/>
<path d="M24.6125 6.80624L29.4594 4.88124V8.35312L29.0125 8.52499L24.6125 6.80624Z" fill="#636466"/>
</svg>

