<svg width="30" height="30" viewBox="0 0 30 30" fill="none" xmlns="http://www.w3.org/2000/svg">
<path d="M14.9997 0C6.72898 0 0 6.72886 0 14.9997C0 23.2709 6.72898 30 14.9997 30C23.271 30 30 23.2709 30 14.9997C29.9997 6.72886 23.2708 0 14.9997 0ZM22.9831 11.0876C22.5854 11.6832 22.0908 12.208 21.5198 12.6404C21.5222 12.7274 21.5238 12.8144 21.5238 12.9015C21.5238 17.2758 18.1952 21.8004 12.6248 21.8004C10.9249 21.8012 9.26054 21.3137 7.82967 20.396C7.77866 20.3634 7.74023 20.3145 7.72067 20.2572C7.7011 20.2 7.70158 20.1378 7.72201 20.0808C7.7419 20.0235 7.78081 19.9748 7.83227 19.9427C7.88374 19.9106 7.94464 19.8972 8.00482 19.9046C8.23969 19.9316 8.47241 19.945 8.69684 19.945C9.7895 19.945 10.8307 19.6512 11.7448 19.0899C11.1943 18.957 10.6873 18.6847 10.2726 18.2991C9.85783 17.9135 9.54935 17.4276 9.37681 16.8883C9.36268 16.844 9.36029 16.7968 9.36987 16.7513C9.37944 16.7058 9.40066 16.6636 9.43144 16.6288C9.46223 16.5939 9.50163 16.5677 9.54571 16.5528C9.58979 16.5379 9.63701 16.5348 9.68264 16.5439C9.73299 16.5535 9.78361 16.5618 9.83396 16.5688C8.90386 15.9761 8.30048 14.9341 8.30048 13.7804V13.7421C8.30051 13.6955 8.31269 13.6497 8.33584 13.6093C8.35898 13.5688 8.39228 13.5351 8.43245 13.5115C8.47262 13.4878 8.51826 13.4751 8.56486 13.4745C8.61147 13.4739 8.65742 13.4855 8.69818 13.5081C8.81468 13.5726 8.93546 13.6286 9.05945 13.6757C8.58353 13.0875 8.32427 12.3536 8.32512 11.597C8.32512 11.0137 8.47965 10.4396 8.77182 9.93689C8.79357 9.89942 8.82408 9.86778 8.86074 9.84469C8.8974 9.8216 8.93911 9.80775 8.9823 9.80433C9.02549 9.8009 9.06886 9.80801 9.1087 9.82503C9.14854 9.84206 9.18366 9.86849 9.21103 9.90207C10.6355 11.6487 12.7062 12.7475 14.9336 12.95C14.9178 12.8173 14.9099 12.6838 14.91 12.5501C14.91 10.7299 16.3913 9.2489 18.2118 9.2489C19.0707 9.2489 19.9017 9.58767 20.5147 10.1827C21.1138 10.0494 21.6879 9.82166 22.2156 9.50813C22.2287 9.46681 22.2518 9.42931 22.2826 9.39884C22.3135 9.36837 22.3513 9.34586 22.3928 9.33322C22.4342 9.32059 22.4782 9.31823 22.5208 9.32633C22.5634 9.33443 22.6034 9.35275 22.6373 9.37973C22.6713 9.4067 22.6982 9.44152 22.7157 9.48118C22.7333 9.52085 22.7409 9.56418 22.738 9.60745C22.735 9.65072 22.7217 9.69263 22.699 9.72958C22.6763 9.76653 22.6449 9.79742 22.6077 9.81959C22.4765 10.2307 22.2653 10.6119 21.9863 10.9412C22.2133 10.8726 22.4357 10.79 22.6524 10.6937C22.7054 10.6703 22.7647 10.6647 22.8212 10.6778C22.8777 10.691 22.9284 10.7221 22.9657 10.7665C23.003 10.8109 23.0248 10.8662 23.028 10.9242C23.0311 10.9821 23.0154 11.0394 22.9831 11.0876Z" fill="#636466"/>
</svg>
